<?xml version="1.0" encoding="UTF-8"?>
<svg id="Capa_1" xmlns="http://www.w3.org/2000/svg" version="1.1" xmlns:xlink="http://www.w3.org/1999/xlink" viewBox="0 0 629.74 483">
  <!-- Generator: Adobe Illustrator 29.2.1, SVG Export Plug-In . SVG Version: 2.1.0 Build 116)  -->
  <defs>
    <style>
      .st0 {
        fill: #95c11f;
      }

      .st1 {
        fill: #e94e1b;
      }

      .st2 {
        fill: url(#Bronce);
        stroke: url(#Latón_apagado);
        stroke-width: 10px;
      }

      .st2, .st3, .st4 {
        stroke-miterlimit: 10;
      }

      .st5, .st3, .st4 {
        fill: #fff;
      }

      .st6 {
        fill: #063;
      }

      .st3 {
        stroke-width: 16px;
      }

      .st3, .st4 {
        stroke: #fff;
      }

      .st7 {
        fill: #1d1d1b;
      }

      .st4 {
        stroke-width: 2px;
      }

      .st8 {
        fill: #f4eeee;
      }
    </style>
    <linearGradient id="Bronce" x1="37.15" y1="236.76" x2="484.24" y2="236.76" gradientUnits="userSpaceOnUse">
      <stop offset="0" stop-color="#461e18"/>
      <stop offset=".08" stop-color="#6f4a27"/>
      <stop offset=".38" stop-color="#af9253"/>
      <stop offset=".56" stop-color="#eadabc"/>
      <stop offset=".79" stop-color="#a48560"/>
      <stop offset=".8" stop-color="#a1815c"/>
      <stop offset=".96" stop-color="#8a542e"/>
    </linearGradient>
    <linearGradient id="Latón_apagado" data-name="Latón apagado" x1="32.15" y1="236.76" x2="489.24" y2="236.76" gradientUnits="userSpaceOnUse">
      <stop offset="0" stop-color="#efc981"/>
      <stop offset=".19" stop-color="#e6c081"/>
      <stop offset=".6" stop-color="#c58511"/>
      <stop offset=".81" stop-color="#e4b76c"/>
      <stop offset=".87" stop-color="#eec687"/>
      <stop offset="1" stop-color="#f2e4ce"/>
    </linearGradient>
  </defs>
  <path class="st0" d="M53.03,434.05l47.5,36.48,18.62-46.53-64.73,6.66c-4.97.51-5.62.75-1.39,3.39Z"/>
  <path class="st2" d="M417.24,434.46H64.35c-16.58,0-28.69-13.26-27.04-29.62L71.15,68.68c1.65-16.36,16.43-29.62,33.01-29.62h352.89c16.58,0,28.69,13.26,27.04,29.62l-33.85,336.16c-1.65,16.36-16.43,29.62-33.01,29.62Z"/>
  <path class="st8" d="M417.24,434.46H64.35c-16.58,0-28.69-13.26-27.04-29.62L71.15,68.68c1.65-16.36,16.43-29.62,33.01-29.62h352.89c16.58,0,28.69,13.26,27.04,29.62l-33.85,336.16c-1.65,16.36-16.43,29.62-33.01,29.62Z"/>
  <path class="st5" d="M575.52,355.82c-.34-.41-.85-.65-1.38-.65h-.56c-5.52-8.59-19.42-27.88-34.71-46.26h0c.5-.25,12.5-6.24,26.82-17.85,17.96-14.59,31.24-31,39.46-48.77,20.19-43.69,19.87-47.09,19.76-48.2l-.31-3.22c-.06-.56-.38-1.07-.86-1.37-.49-.29-1.09-.34-1.62-.12l-26.85,11.2c8.18-42.21,7.16-45.18,6.82-46.17l-1.09-3.16c-.19-.55-.63-.97-1.19-1.14-.56-.16-1.16-.05-1.61.31l-110.22,85.88c-2.95,2.3-5.65,4.93-8.04,7.83-2.14-2.77-4.05-5.38-5.69-7.77-5.16-10.45-15.18-16.93-26.17-16.93-9.4,0-18.31,4.87-23.79,13-.68.95-1.34,2.03-2.02,3.31-2.31,4.34-3.62,9.34-3.79,14.36-.01.12-.02.24-.03.35l-19.77,8.22c-.74.31-1.18,1.06-1.09,1.86.09.8.68,1.43,1.48,1.57l10.83,1.88c-.46,1.81-.66,3.78-.57,5.84-.74.03-1.48.18-2.18.46l-20.69,8.18c-1.58.62-2.81,1.64-3.56,2.95-1.02,1.77-1.17,3.87-.42,5.76l10.57,26.73c.65,1.65,1.91,2.94,3.53,3.65,1.63.7,3.43.74,5.08.08l20.73-8.19c1.7-.67,3.05-1.97,3.77-3.65.73-1.68.76-3.55.09-5.25l-7.6-19.24c1.71-1.6,2.65-3.48,2.8-5.59.11-1.45-.28-2.64-.56-3.51-.04-.13-.09-.26-.12-.4-.24-.99-.37-1.94-.4-2.81-.03-1.32.12-2.36.47-3.1l.92.16c.34.71.71,1.41,1.09,2.09.14.31.31.6.52.86.38.64.8,1.28,1.27,1.92v.24s.87.95.87.95c.78,1.23,1.77,2.84,2.68,4.59.25.48.48.95.69,1.39-.14.28-.26.58-.36.89l-.47,1.38.48,1.37c.88,2.48,1.27,4.6,1.18,6.31-.39,6.55-.5,19.06,0,27.79.25,22.42,13.76,41.73,33.53,48.01,3.64,1.39,7.47,2.09,11.39,2.09h34.06l-.02-.24h39.55l.97,1.54c-.46,2.45-.76,5-.9,7.6-.28,5.37.16,10.5,1.27,14.83,1.83,7.25,5.37,11.39,9.98,11.67.77.04,1.3-.03,1.91-.14l.93-.28c.96-.36,3.18-1.18,3.97-3.64.64.19,1.29.3,1.92.33l10.45,16.62c6.69,10.6,17.78,16.93,29.66,16.93h3.27c1.23,0,2.48-.21,3.75-.62,3.59-1.27,6.38-4.37,7.47-8.29,1.13-4.07.24-8.41-2.39-11.6l-44.98-54.82ZM435.64,243.26c.55.61.85,1.43.85,2.32,0,1.72-1.13,3.13-2.52,3.13s-2.52-1.4-2.52-3.13,1.13-3.13,2.52-3.13c.63,0,1.13.34,1.51.68l.16.13Z"/>
  <path class="st1" d="M387.76,281.7l20.94-8.28c1.26-.5,2.69.12,3.18,1.38l.66,1.67c.62-.35,1.45-.87,1.82-1.35.23-.31.29-.41.26-.57-.02-.1-.22-.67-.31-.95-1.24-4.19-1.37-9.9,1.78-13.54l-8.22-1.43,14.82-6.16c-.04-.61-.07-1.22-.07-1.84,0-.31,0-.65.04-.96.14-4.61,1.3-8.95,3.31-12.72.53-1,1.09-1.96,1.73-2.84,4.61-6.84,12.04-11.26,20.39-11.26,9.82,0,18.31,6.03,22.57,14.91l.04.04c2.71,3.97,5.93,8.21,9.37,12.48,2.86-4.39,6.43-8.27,10.49-11.43l81.32-63.36,26.27-20.47s1.1,3.18-8.12,49.9c-.12.6-.26,1.2-.39,1.79l.96-.4,30.16-12.58s.33,3.38-19.39,46.05c-9.55,20.65-24.99,36.47-38.3,47.28-14.19,11.49-26.04,17.34-26.04,17.34,2.31-5.51,5.35-14.12,7.75-21.18-1.3,1.25-2.07,1.93-2.07,1.93.2-1.21.39-2.56.58-4-3.73,6.44-8.93,14.9-14.24,21.89,19.4,22.3,37.51,47.74,42.22,55.54h1.74l44.26,53.94c3.77,4.57,1.66,11.56-3.24,13.29-.7.23-1.51.38-2.36.38h-3.27c-10.42,0-20.21-5.61-26.13-14.98l-12.02-19.11c-.15.11-.31.22-.48.3-1.95.9-4.58-.63-7.09-3.73-1.89-2.32-3.72-5.51-5.16-9.24-.96-2.49-1.62-4.92-2.03-7.2,0,.17-.02.33-.03.49-.22,4.32.06,8.39.75,11.81.99,5.07,2.17,9.84,6.19,10.63-.18.65-1,.87-1.73,1.15-.37.07-.57.09-.9.07-2.66-.16-4.87-3.48-6.14-8.51-.97-3.77-1.42-8.49-1.15-13.59.16-3.09.57-6,1.16-8.62l-3.1-4.92h-46.43c0,.08.02.16.03.24h-29.51c-3.56,0-6.87-.65-9.96-1.84-17.64-5.57-30.56-23.21-30.77-44.18-.49-8.64-.39-20.94,0-27.43.14-2.54-.46-5.26-1.41-7.95.27-.8.7-1.32,1.24-1.65-.54-1.35-1.17-2.66-1.79-3.89-1.02-1.96-2.11-3.73-2.99-5.11-.04-.08-.07-.12-.11-.15,0-.04-.04-.08-.07-.12-.74-.92-1.41-1.88-1.97-2.88l-.04-.04c-.07-.04-.07-.08-.07-.08v-.04c-.76-1.29-1.42-2.65-1.98-4.06l-5.58-.97c-.08.19-.2.37-.39.54-2.1,1.84-2.59,4.6-2.52,7.22.03,1.25.22,2.49.51,3.69.21.86.64,1.7.57,2.62-.14,1.97-1.84,3.39-3.72,4.39l8.89,22.49c.5,1.26-.12,2.69-1.38,3.18l-20.94,8.28c-1.26.5-2.69-.12-3.18-1.38l-10.57-26.73c-.5-1.26.12-2.69,1.38-3.18ZM433.97,252.12c3.7,0,6.7-3.27,6.7-7.31,0-2.03-.76-3.86-1.98-5.19-.14-.16-.3-.3-.47-.42-1.16-1.05-2.63-1.7-4.25-1.7-3.7,0-6.7,3.27-6.7,7.31s3,7.31,6.7,7.31ZM408.23,284.49c2.36.08,4.34-1.78,4.42-4.14,0-.29-.01-.57-.06-.84-.96.43-1.92.76-2.69,1.01-1.68.53-2.22-2.13-.55-2.66.66-.21,1.29-.47,1.93-.76-.73-.68-1.69-1.13-2.77-1.17-2.36-.08-4.34,1.78-4.42,4.14-.08,2.36,1.78,4.34,4.14,4.42Z"/>
  <polygon class="st6" points="99.92 469.5 123.02 399.52 417.03 391.78 435.87 469.5 99.92 469.5"/>
  <g>
    <g>
      <path class="st3" d="M214.11,211.12l-43.85,1.15.45-3.08c1.48-10.07,6.1-17.35,22.06-32.09,24.66-22.74,34.03-38.13,36.53-55.18,3.38-23.01-6.44-35.85-29.1-35.25-22.66.59-36.34,14.05-39.72,37.05l-2.05,13.97,21.82-.57,2.26-15.41c1.51-10.27,6.7-14.29,14.04-14.49,7.34-.19,11.45,3.18,9.55,16.12-1.96,13.35-8.6,24.37-28.91,43.11-19.8,18.12-27.52,30.8-30.54,51.34l-2.29,15.61,66.72-1.74,3.02-20.54Z"/>
      <path class="st3" d="M297.72,195.43l4.77-32.46c3.11-21.16-3.78-32.64-20.77-32.2-9.23.24-16.28,4.11-21.47,11h-.42s6.93-34.34,6.93-34.34l40.29-1.05,3.02-20.54-60.85,1.59-16,80.43,21.82-.57.18-1.23c1.51-10.27,6.7-14.29,14.04-14.49,7.34-.19,11.39,3.59,9.88,13.86l-4.74,32.25c-1.51,10.27-6.67,14.09-14.01,14.28-7.34.19-11.42-3.38-9.91-13.65l1.9-12.94-21.82.57-1.66,11.3c-3.38,23.01,6.44,35.85,29.1,35.25,22.66-.59,36.34-14.05,39.72-37.05Z"/>
      <path class="st3" d="M334.62,164.79c14.48-.38,23.45-8.8,25.62-23.59l5.28-35.95c2.17-14.79-4.38-22.8-18.86-22.43-14.48.38-23.45,8.8-25.62,23.59l-5.28,35.95c-2.17,14.79,4.39,22.8,18.86,22.42ZM344.76,95.77c4.62-.12,7.16,2.47,6.23,8.84l-5.58,38c-.94,6.37-4.27,9.12-8.88,9.24-4.83.13-7.16-2.47-6.23-8.84l5.58-38c.94-6.37,4.06-9.11,8.88-9.24Z"/>
      <path class="st3" d="M420.25,169.51c2.17-14.79-4.38-22.8-18.86-22.42-14.48.38-23.45,8.8-25.62,23.59l-5.28,35.95c-2.17,14.79,4.38,22.8,18.86,22.43,14.48-.38,23.45-8.8,25.62-23.59l5.28-35.95ZM391.25,216.11c-4.83.13-7.16-2.47-6.23-8.84l5.58-38c.94-6.37,4.06-9.11,8.88-9.24,4.62-.12,7.16,2.47,6.23,8.84l-5.58,38c-.94,6.37-4.27,9.12-8.88,9.24Z"/>
      <polygon class="st3" points="414.34 83.11 399.66 83.49 321.67 228.77 336.35 228.39 414.34 83.11"/>
      <path class="st3" d="M237.83,278.02c3.38-23.01-7.07-35.83-29.73-35.24-22.66.59-36.97,14.06-40.35,37.07l-11.11,75.59c-3.38,23.01,7.07,35.83,29.73,35.24,22.66-.59,36.97-14.06,40.35-37.07l11.11-75.59ZM189.39,370.14c-7.35.19-11.39-3.59-9.88-13.86l11.53-78.47c1.51-10.27,6.7-14.29,14.04-14.49,7.34-.19,11.39,3.59,9.88,13.86l-11.53,78.47c-1.51,10.27-6.7,14.29-14.04,14.49Z"/>
      <polygon class="st3" points="315.23 242.03 254.17 243.62 233.04 387.42 256.12 386.81 265.33 324.16 295.12 323.38 298.14 302.84 268.35 303.62 274.23 263.56 312.21 262.57 315.23 242.03"/>
      <polygon class="st3" points="383.21 240.25 322.15 241.85 301.02 385.64 324.1 385.04 333.31 322.38 363.1 321.6 366.12 301.06 336.33 301.84 342.21 261.79 380.19 260.79 383.21 240.25"/>
    </g>
    <g>
      <path class="st6" d="M144.38,220.93c3.02-20.54,10.73-33.23,30.53-51.34,20.31-18.74,26.95-29.76,28.91-43.11,1.9-12.94-2.2-16.31-9.55-16.12-7.34.19-12.53,4.22-14.04,14.49l-2.26,15.41-21.82.57,2.05-13.97c3.38-23.01,17.06-36.46,39.72-37.05,22.66-.59,32.48,12.25,29.1,35.25-2.51,17.05-11.87,32.44-36.53,55.18-15.96,14.74-20.58,22.02-22.06,32.09l-.45,3.08,43.85-1.15-3.02,20.54-66.72,1.74,2.29-15.61Z"/>
      <path class="st6" d="M226.62,200.37l1.66-11.3,21.82-.57-1.9,12.94c-1.51,10.27,2.56,13.85,9.91,13.66,7.34-.19,12.5-4.01,14.01-14.28l4.74-32.25c1.51-10.27-2.53-14.05-9.88-13.86s-12.53,4.22-14.04,14.49l-.18,1.23-21.82.57,16-80.43,60.85-1.59-3.02,20.54-40.28,1.05-6.93,34.35h.42c5.19-6.9,12.24-10.77,21.47-11.01,17-.44,23.88,11.04,20.77,32.2l-4.77,32.46c-3.38,23.01-17.06,36.46-39.72,37.05-22.66.59-32.48-12.25-29.1-35.25Z"/>
      <path class="st6" d="M313.48,145.51l5.28-35.95c2.17-14.79,11.14-23.21,25.62-23.59s21.03,7.64,18.86,22.43l-5.28,35.95c-2.17,14.79-11.14,23.21-25.62,23.59-14.48.38-21.03-7.63-18.86-22.42ZM397.37,86.63l14.69-.38-77.99,145.28-14.69.38,77.99-145.28ZM343.12,145.75l5.58-38c.94-6.37-1.61-8.96-6.22-8.84-4.83.13-7.95,2.87-8.88,9.24l-5.58,38c-.94,6.37,1.4,8.97,6.22,8.84,4.62-.12,7.95-2.87,8.88-9.24ZM368.2,209.76l5.28-35.95c2.17-14.79,11.14-23.21,25.62-23.59s21.03,7.63,18.86,22.43l-5.28,35.95c-2.17,14.79-11.14,23.21-25.62,23.59-14.48.38-21.03-7.63-18.86-22.42ZM397.84,210.01l5.58-38c.94-6.37-1.61-8.96-6.23-8.84-4.82.13-7.94,2.87-8.88,9.24l-5.58,38c-.94,6.37,1.4,8.97,6.22,8.84,4.62-.12,7.95-2.87,8.88-9.24Z"/>
      <path class="st6" d="M154.36,358.58l11.11-75.59c3.38-23.01,17.69-36.48,40.35-37.07,22.66-.59,33.11,12.23,29.73,35.24l-11.11,75.59c-3.38,23.01-17.69,36.48-40.35,37.07-22.66.59-33.11-12.23-29.73-35.24ZM201.14,358.79l11.53-78.47c1.51-10.27-2.53-14.05-9.88-13.86-7.34.19-12.53,4.22-14.04,14.49l-11.53,78.47c-1.51,10.27,2.53,14.05,9.88,13.86,7.34-.19,12.53-4.21,14.04-14.49Z"/>
      <path class="st6" d="M251.89,246.76l61.06-1.6-3.02,20.54-37.98.99-5.89,40.06,29.79-.78-3.02,20.54-29.79.78-9.21,62.65-23.08.6,21.13-143.79Z"/>
      <path class="st6" d="M319.87,244.98l61.06-1.6-3.02,20.54-37.98.99-5.88,40.06,29.79-.78-3.02,20.54-29.79.78-9.21,62.65-23.08.6,21.13-143.8Z"/>
    </g>
  </g>
  <g>
    <path class="st5" d="M278.51,403.48l-6.06,11.27-.63-11.1-14.28.37,2.99,30.89-2.7,11.13-10.64.28,10.28-42.3-13.69.36-1.66,6.84c-.3-1.11-.78-2.1-1.45-2.95-1.99-2.51-5.39-3.67-10.38-3.54l-14.15.37-7.84,32.26,2.46-32.12-15.63.41-17.33,42.48-10.51.27,2.3-9.48,10.9-.28,3.09-12.72-10.9.28,1.79-7.37,13.72-.36,3.09-12.73-27.41.72-13.37,55.02,27.41-.72h0s8.05-.21,8.05-.21l3.79-9.69,4.08-.11-.92,9.62,9.86-.26h0s13.69-.36,13.69-.36l5.14-21.15h.36c.75-.03,1.12.04,1.27.09.04.24.08.93-.32,2.6l-2.19,9.02c-1.02,4.22-.99,5.33-.82,6.99l.23,2.35,10.29-.27h.06s3.79-.1,3.79-.1h0s20.48-.53,20.48-.53h0s13.69-.36,13.69-.36l5.57-22.93,18.67-32.37-14.15.37ZM228.2,419.18l-.93,3.81c-.58,2.37-1.39,2.81-2.6,2.91l2.04-8.41,1.23-.03c.22,0,.37,0,.48.02.02.25,0,.77-.23,1.71ZM195.21,436.59l-.18,1.84h-.53s.71-1.84.71-1.84ZM235.71,431.66c.7-.61,1.34-1.29,1.93-2.05l-1,4.1c-.21-.72-.51-1.42-.94-2.05Z"/>
    <path class="st5" d="M390.31,404.5c-2.02-2.56-5.43-3.79-10.1-3.67l-14.51.38-1.66,6.85c-.3-1.11-.78-2.1-1.45-2.95-1.99-2.51-5.39-3.68-10.39-3.54l-14.15.37h0s-12.42.32-12.42.32l-1.6,6.58c-.31-1-.75-1.91-1.37-2.69-1.99-2.51-5.38-3.66-10.39-3.54l-14.37.37-13.37,55.02,15.85-.41c5.46-.14,9.9-1.98,13.08-5.29l-1.21,4.98,12.42-.32h0s.75-.02.75-.02h.52s0-.01,0-.01l12.42-.32,5.14-21.15h.36c.75-.03,1.12.04,1.27.09.04.24.08.93-.32,2.6l-2.19,9.02c-1.02,4.22-.99,5.33-.82,6.99l.23,2.35,10.29-.27h.26s3.6-.1,3.6-.1h0s11.64-.3,11.64-.3c9.17-.24,15.48-5.54,17.76-14.92l6.06-24.95c1.2-4.95.75-8.8-1.34-11.45ZM305.9,438.03l-1.04,4.3c-.61,2.51-1.26,2.53-2.34,2.56l-1.18.03,2.3-9.48,1.16-.03c.87-.02,1.26.07,1.4.12.04.21.11.87-.29,2.5ZM306.72,422.71l1.79-7.36,1.44-.04c.22,0,.38,0,.48.02.02.25,0,.77-.23,1.71l-.67,2.75c-.61,2.51-1.48,2.85-2.82,2.92ZM318.16,428.33c.55-.48,1.05-1.02,1.53-1.6l-.71,2.93c-.24-.49-.51-.95-.82-1.34ZM378.29,414.98l-6.23,25.66c-.59,2.44-1.36,2.46-2.25,2.49l-.68.02,7.19-29.57,1.66-.04c.24,0,.4,0,.51.02.01.21,0,.65-.19,1.43ZM350.13,416l-.93,3.81c-.58,2.37-1.39,2.81-2.6,2.9l2.04-8.41,1.23-.03c.22,0,.38,0,.48.02.02.25,0,.77-.23,1.71ZM357.65,428.49c.7-.61,1.34-1.3,1.93-2.05l-1,4.1c-.21-.72-.51-1.42-.94-2.05Z"/>
  </g>
  <g>
    <path class="st7" d="M166.01,409.56l21.66-.56-1.71,7.05-13.72.36-3.17,13.04,10.9-.28-1.71,7.05-10.9.28-3.68,15.16,13.72-.36-1.71,7.05-21.66.56,11.99-49.35Z"/>
    <path class="st7" d="M196.9,408.75l10.76-.28-3.76,49.14-7.94.21.94-9.76-.03.14-9.02.24-3.79,9.7-7.37.19,20.22-49.57ZM197.55,441.52l2.39-24.3h-.14s-9.39,24.49-9.39,24.49l7.15-.19Z"/>
    <path class="st7" d="M218.27,408.19l11.77-.31c8.23-.21,10.86,3.43,9.01,11.04l-.74,3.03c-1.23,5.08-3.68,8.36-7.56,9.87l-.03.14c3.68,1.09,4.09,4.73,2.74,10.3l-2.11,8.67c-.58,2.4-.94,4.16-.59,5.97l-8.09.21c-.12-1.26-.22-2.03.75-6.04l2.19-9.03c1.11-4.58.1-6.03-3.51-5.93l-2.74.07-5.14,21.15-7.94.21,11.99-49.35ZM223.96,429.06c2.96-.08,5.07-1.39,6.03-5.34l.93-3.81c.86-3.53,0-5.04-2.81-4.97l-3.61.09-3.43,14.1,2.89-.08Z"/>
    <path class="st7" d="M245.92,407.47l7.94-.21-10.28,42.3,13.07-.34-1.71,7.05-21.01.55,11.99-49.35Z"/>
    <path class="st7" d="M263.37,435.18l-2.71-28.09,8.45-.22,1.01,17.98h.14s9.82-18.26,9.82-18.26l7.73-.2-16.49,28.59-5.1,21.01-7.94.21,5.1-21.01Z"/>
    <path class="st7" d="M300.07,406.06l11.98-.31c8.23-.21,10.86,3.43,9.01,11.04l-.48,1.97c-1.23,5.08-3.59,8.29-7.47,9.79l-.03.14c3.92,1.3,4.69,4.92,3.42,10.14l-1.03,4.23c-1.85,7.61-6.96,11.81-14.9,12.02l-12.49.33,11.99-49.35ZM302.28,448.04c2.67-.07,4.41-1.31,5.3-4.97l1.04-4.3c1.11-4.58-.06-5.95-3.67-5.86l-3.54.09-3.68,15.16,4.55-.12ZM306.23,425.87c2.96-.08,5.07-1.39,6.03-5.34l.67-2.75c.86-3.53,0-5.04-2.81-4.97l-3.83.1-3.17,13.04,3.1-.08Z"/>
    <path class="st7" d="M327.79,405.34l7.94-.21-11.99,49.35-7.94.21,11.99-49.35Z"/>
    <path class="st7" d="M340.21,405.01l11.77-.31c8.23-.21,10.86,3.43,9.01,11.04l-.74,3.03c-1.23,5.08-3.68,8.36-7.56,9.86l-.03.14c3.68,1.09,4.09,4.73,2.73,10.3l-2.11,8.67c-.58,2.4-.94,4.16-.59,5.97l-8.09.21c-.12-1.26-.22-2.03.75-6.04l2.19-9.03c1.11-4.58.1-6.03-3.51-5.93l-2.74.07-5.14,21.15-7.94.21,11.99-49.35ZM345.9,425.88c2.96-.08,5.07-1.39,6.03-5.34l.93-3.81c.86-3.53,0-5.04-2.81-4.97l-3.61.09-3.43,14.1,2.89-.08Z"/>
    <path class="st7" d="M367.86,404.29l12.13-.32c7.94-.21,10.79,3.99,8.88,11.89l-6.06,24.96c-1.92,7.9-6.86,12.3-14.8,12.51l-12.13.32,11.99-49.35ZM369.57,446.28c2.53-.07,4.35-1.37,5.21-4.9l6.24-25.66c.86-3.53-.35-4.75-2.88-4.69l-4.04.11-8.57,35.25,4.04-.11Z"/>
  </g>
  <g>
    <path class="st4" d="M161.78,13.46l-13.35.35-9.47,13.16,3.16-12.99-12.3.32-1.86,7.65c-.24-1.81-.86-3.35-1.87-4.59-1.92-2.38-5.05-3.54-9.29-3.41-8.55.22-14.67,5.39-16.81,14.18-1.58,6.5-.06,11.13,5.6,17.09,3.89,4.07,4.31,5.9,3.55,9.01-.76,3.11-2.11,3.41-3.32,3.44-.05,0-.09,0-.14,0-.66,0-.84-.12-.84-.12-.01-.03-.23-.49.13-1.97l1.47-6.06-11.15.29,2.65-34.68-14.46.38-21.96,53.82,11.98-.31,3.79-9.7,5.27-.14-.92,9.62,12.22-.32.31-4.03c.21.35.44.69.69,1.01,1.86,2.3,4.83,3.46,8.85,3.46.19,0,.38,0,.57,0,6.11-.16,10.99-2.85,14.1-7.58l-1.59,6.56,12.3-.32,4.1-16.87,1.01-1.37,1.14,18.08,12.52-.33-2.1-32.39,16.02-21.23ZM84.37,40.85l-.73,7.43-2.14.06,2.87-7.48ZM115.89,36.93h0c-3.97-4.16-4.36-5.99-3.75-8.52.71-2.92,1.99-3.19,3.13-3.22.04,0,.08,0,.12,0,.49,0,.71.07.72.08.03.06.21.58-.15,2.08l-1.27,5.21,10.76-.28-3.64,14.98c-.54-3.5-2.42-6.65-5.91-10.33Z"/>
    <path class="st4" d="M242.51,14.94c-1.91-2.37-5.16-3.46-9.95-3.33l-13.38.35-2.44,10.06c.06-2.75-.61-5.04-2.04-6.81-2.01-2.49-5.26-3.71-9.69-3.58-5.04.13-9.24,1.95-12.3,5.19l1.02-4.19-25.37.66-13.02,53.59,12.3-.32,5.22-21.5,10.25-.27,2.74-11.29-10.25.27,2.31-9.51,10.61-.28c-.21.64-.41,1.3-.58,1.98l-6.3,25.94c-1.16,4.76-.67,8.49,1.45,11.11,1.92,2.38,4.99,3.59,9.12,3.59.19,0,.38,0,.57,0,7.16-.19,12.64-3.78,15.55-10.02l-2.18,8.97,12.3-.32,5.14-21.15,1.13-.03c1.37-.03,1.67.21,1.67.21,0,0,.35.56-.27,3.12l-2.19,9.03c-1,4.1-.96,5.16-.8,6.75l.19,1.95,12.52-.33-.47-2.44c-.27-1.42.06-3,.57-5.08l2.11-8.67c.51-2.08,1.82-7.47-.85-10.71,2.75-2.07,4.67-5.29,5.71-9.6l.74-3.03c1.12-4.59.74-7.97-1.16-10.32ZM204.24,25.04l-6.54,26.93c-.7,2.9-2.01,3.33-3.31,3.37-.72,0-.95-.13-.95-.13-.07-.1-.21-.7.12-2.03l6.54-26.93c.7-2.9,2.01-3.33,3.31-3.37.73,0,.95.13.95.13.07.1.21.7-.12,2.03ZM230.53,29.05c-.74,3.06-2.04,3.68-4.04,3.74h-.14s2.4-9.86,2.4-9.86l2-.05s.09,0,.14,0c.54,0,.74.08.76.08.03.08.22.62-.19,2.29l-.93,3.81Z"/>
  </g>
  <g>
    <path class="st7" d="M84.53,17.01l10.76-.28-3.76,49.14-7.94.21.94-9.76-.03.14-9.02.23-3.79,9.7-7.36.19,20.22-49.57ZM85.17,49.79l2.39-24.3h-.14s-9.39,24.49-9.39,24.49l7.15-.19Z"/>
    <path class="st7" d="M95.16,54.15l.69-2.82,7.51-.2-.82,3.38c-.86,3.53.42,4.75,2.95,4.69,2.53-.07,4.42-1.38,5.32-5.04.99-4.09.04-6.66-4.08-10.96-5.26-5.54-6.44-9.5-5.07-15.14,1.88-7.76,7.1-12.38,14.82-12.58s10.46,4.21,8.54,12.11l-.5,2.04-7.51.2.62-2.54c.86-3.52-.26-4.83-2.79-4.76-2.53.07-4.3,1.44-5.12,4.83-.87,3.6.15,6.16,4.27,10.47,5.25,5.54,6.39,9.43,4.9,15.56-1.95,8.04-7.24,12.66-15.03,12.86-7.8.2-10.6-4.21-8.68-12.1Z"/>
    <path class="st7" d="M131.09,15.8l7.94-.21-5.05,20.8,15.16-21.06,7.94-.21-13.86,18.37,2.01,30.98-8.3.22-1.37-21.82-4.7,6.36-3.82,15.72-7.94.21,11.99-49.35Z"/>
    <path class="st7" d="M169.64,14.79l21.01-.55-1.71,7.05-13.07.34-3.34,13.75,10.25-.27-1.71,7.05-10.25.27-5.22,21.5-7.94.21,11.99-49.35Z"/>
    <path class="st7" d="M183.31,51.85l6.3-25.95c1.92-7.9,7.28-12.52,15.07-12.72s10.96,4.2,9.04,12.09l-6.3,25.95c-1.92,7.9-7.27,12.52-15.07,12.72s-10.96-4.2-9.04-12.09ZM199.36,51.92l6.54-26.93c.86-3.52-.41-4.82-2.93-4.76-2.53.07-4.44,1.45-5.3,4.97l-6.54,26.93c-.86,3.53.41,4.82,2.93,4.76,2.53-.07,4.44-1.45,5.3-4.97Z"/>
    <path class="st7" d="M220.47,13.47l11.77-.31c8.23-.21,10.86,3.43,9.01,11.04l-.74,3.03c-1.23,5.08-3.68,8.36-7.56,9.87l-.03.14c3.68,1.09,4.09,4.73,2.74,10.3l-2.11,8.67c-.58,2.4-.94,4.16-.59,5.97l-8.09.21c-.12-1.26-.23-2.03.75-6.04l2.19-9.02c1.11-4.58.1-6.03-3.51-5.93l-2.74.07-5.14,21.15-7.94.21,11.99-49.35ZM226.16,34.34c2.96-.08,5.07-1.39,6.03-5.34l.93-3.81c.86-3.53,0-5.04-2.81-4.97l-3.61.09-3.43,14.1,2.89-.08Z"/>
  </g>
</svg>