<?xml version="1.0" encoding="UTF-8"?>
<svg id="Capa_1" xmlns="http://www.w3.org/2000/svg" version="1.1" viewBox="0 0 581.1 307.6">
  <!-- Generator: Adobe Illustrator 29.3.1, SVG Export Plug-In . SVG Version: 2.1.0 Build 151)  -->
  <defs>
    <style>
      .st0 {
        fill: #194892;
      }

      .st1 {
        fill: #fff;
      }

      .st2, .st3 {
        fill: none;
      }

      .st4 {
        fill: #f0ad1d;
      }

      .st3 {
        stroke: #484abc;
        stroke-miterlimit: 10;
        stroke-width: 3px;
      }

      .st5 {
        fill: #f59d1e;
      }

      .st6, .st7 {
        fill: #484abc;
      }

      .st7 {
        fill-rule: evenodd;
      }

      .st8 {
        fill: #f06022;
      }

      .st9 {
        fill: #e91d25;
      }
    </style>
  </defs>
  <g>
    <g>
      <rect class="st2" x="304" y="164" width="113.7" height="80.6"/>
      <g>
        <rect class="st8" x="349" y="183.1" width="23.5" height="42.2"/>
        <path class="st9" d="M350.5,204.3c0-8.2,3.8-16,10.3-21.1-11.7-9.2-28.5-7.1-37.7,4.5-9.2,11.7-7.1,28.5,4.5,37.7,9.7,7.7,23.4,7.7,33.2,0-6.5-5.1-10.3-12.9-10.3-21.1Z"/>
        <path class="st5" d="M404.2,204.3c0,14.8-12,26.8-26.8,26.9-6,0-11.9-2-16.6-5.7,11.7-9.2,13.7-26,4.5-37.7-1.3-1.7-2.8-3.2-4.5-4.5,11.7-9.2,28.5-7.1,37.7,4.5,3.7,4.7,5.7,10.6,5.7,16.6Z"/>
        <path class="st5" d="M401.7,220.9v-.9h.3v-.2h-.9v.2h.3v.9h.2ZM403.4,220.9v-1h-.3l-.3.7-.3-.7h-.3v1h.2v-.8l.3.7h.2l.3-.7v.8h.2Z"/>
      </g>
    </g>
    <g>
      <rect class="st0" x="163.4" y="165.4" width="121.1" height="77.6"/>
      <path class="st1" d="M209,219.6l5.2-30.4h8.3l-5.2,30.4h-8.3ZM247.2,189.8c-1.6-.6-4.2-1.3-7.4-1.3-8.2,0-14,4.1-14,10,0,4.4,4.1,6.8,7.3,8.3,3.2,1.5,4.3,2.4,4.3,3.8,0,2-2.6,3-5,3s-5.1-.5-7.8-1.6l-1.1-.5-1.2,6.8c1.9.8,5.5,1.6,9.2,1.6,8.7,0,14.4-4.1,14.4-10.4,0-3.5-2.2-6.1-7-8.3-2.9-1.4-4.7-2.3-4.6-3.8,0-1.3,1.5-2.6,4.7-2.6,2.7,0,4.7.5,6.2,1.2l.7.4,1.1-6.6M268.5,189.2h-6.4c-2,0-3.5.5-4.3,2.5l-12.3,27.8h8.7s1.4-3.7,1.7-4.6c1,0,9.4,0,10.6,0,.2,1.1,1,4.6,1,4.6h7.7l-6.7-30.4h0ZM258.3,208.8c.7-1.8,3.3-8.5,3.3-8.5,0,0,.7-1.8,1.1-2.9l.6,2.6s1.6,7.3,1.9,8.8h-6.9ZM201.9,189.2l-8.1,20.7-.9-4.2c-1.5-4.9-6.2-10.1-11.5-12.7l7.4,26.6h8.8s13-30.3,13-30.3h-8.8"/>
      <path class="st4" d="M186.2,189.2h-13.4v.6c10.3,2.5,17.2,8.6,20,15.9l-2.9-14c-.5-1.9-2-2.5-3.8-2.6"/>
    </g>
  </g>
  <g>
    <path class="st7" d="M539.4,116.3c0-19-9.2-34-26.8-34s-28.4,15-28.4,33.9,12.6,33.7,30.8,33.7,15.5-2,20.6-4.8v-14.9c-5.1,2.5-10.8,4.1-18.2,4.1s-13.6-2.5-14.4-11.3h36.3c0-1,.1-4.8.1-6.6ZM502.7,109.2c0-8.4,5.1-11.9,9.8-11.9s9.4,3.5,9.4,11.9h-19.2ZM455.5,82.3c-7.3,0-12,3.4-14.6,5.8l-1-4.6h-16.3v86.6l18.6-3.9v-21c2.7,1.9,6.7,4.7,13.2,4.7,13.3,0,25.4-10.7,25.4-34.3,0-21.5-12.3-33.3-25.3-33.3h0ZM451.1,133.5c-4.4,0-7-1.6-8.8-3.5v-27.6c1.9-2.2,4.5-3.6,8.8-3.6,6.8,0,11.4,7.6,11.4,17.3s-4.6,17.4-11.4,17.4ZM398.1,77.9l18.6-4v-15.1l-18.6,3.9v15.2ZM398.1,83.5h18.6v65h-18.6v-65ZM378.1,89l-1.2-5.5h-16v65h18.6v-44.1c4.4-5.7,11.8-4.7,14.1-3.9v-17.1c-2.4-.9-11.1-2.5-15.5,5.5h0ZM340.9,67.4l-18.1,3.9v59.5c0,11,8.2,19.1,19.2,19.1s10.6-1.1,13-2.5v-15.1c-2.4,1-14.1,4.4-14.1-6.6v-26.4h14.1v-15.8h-14.1v-16.1ZM290.7,102.4c0-2.9,2.4-4,6.3-4,5.6,0,12.8,1.7,18.4,4.8v-17.5c-6.2-2.5-12.3-3.4-18.4-3.4-15.1,0-25.1,7.9-25.1,21,0,20.5,28.2,17.2,28.2,26.1s-3,4.5-7.1,4.5c-6.2,0-14-2.5-20.3-5.9v17.7c6.9,3,13.9,4.2,20.3,4.2,15.5,0,26.1-7.7,26.1-21,0-22.1-28.4-18.2-28.4-26.5h0Z"/>
    <g>
      <path class="st6" d="M44.9,101.6h10.5c5.4,0,9.1,3,9.1,7.9s-4.1,8.1-9.2,8.1h-5.4v10.1h-4.9v-26.2ZM49.8,113.7h4.9c3,0,4.8-1.3,4.8-4.1s-2-4.1-4.7-4.1h-5v8.1Z"/>
      <path class="st6" d="M85.3,118c0,5.8-3.4,10.2-9.5,10.2s-9.4-4.3-9.4-10.1,3.5-10.2,9.6-10.2,9.3,4,9.3,10.2ZM71.3,118c0,3.9,1.8,6.4,4.7,6.4s4.6-2.5,4.6-6.4-1.7-6.5-4.7-6.5-4.6,2.2-4.6,6.4Z"/>
      <path class="st6" d="M92.2,108.3c2,8.3,3.1,13,3.4,15.2h0c.4-2,1.2-5.7,3.7-15.2h4.4c2.5,10.1,3.2,13,3.5,15h0c.4-2,1.1-5,3.6-15h4.7l-5.9,19.5h-5.1c-1.7-7.3-2.9-12.1-3.4-14.5h0c-.3,2.3-1.6,7.3-3.5,14.5h-5.1l-5.6-19.5h5Z"/>
      <path class="st6" d="M122.1,119c0,2.9,1.5,5.5,4.4,5.5s3.3-1.1,3.8-2.4h4.7c-.7,2.4-2.8,6.1-8.7,6.1s-9-4.9-9-9.9,3.1-10.5,9.2-10.5,8.8,4.9,8.8,9.5,0,1.1,0,1.6h-13.1ZM130.5,116c0-2.6-1.2-4.7-4-4.7s-4.1,2-4.3,4.7h8.4Z"/>
      <path class="st6" d="M139.2,113.6c0-2.2,0-3.9,0-5.3h4.6c0,.5.1,2.3.1,3.6.9-2.4,3.1-4,6.4-4.1v4.5c-3.9,0-6.4,1.4-6.4,6.6v8.8h-4.7v-14.2Z"/>
      <path class="st6" d="M156.8,119c0,2.9,1.5,5.5,4.4,5.5s3.3-1.1,3.8-2.4h4.7c-.7,2.4-2.8,6.1-8.7,6.1s-9-4.9-9-9.9,3.1-10.5,9.2-10.5,8.8,4.9,8.8,9.5,0,1.1,0,1.6h-13.1ZM165.3,116c0-2.6-1.2-4.7-4-4.7s-4.1,2-4.3,4.7h8.4Z"/>
      <path class="st6" d="M191.5,100.1v22.3c0,1.8,0,3.6,0,5.4h-4.5c-.1-.6-.2-1.7-.2-2.3-.9,1.7-2.7,2.7-5.7,2.7-5,0-8.1-4-8.1-10s3.3-10.4,8.8-10.4,4.5,1.1,5,2.1v-9.9h4.7ZM177.8,118.1c0,4.1,1.7,6.3,4.5,6.3,4,0,4.6-3.2,4.6-6.5s-.6-6.3-4.4-6.3-4.7,2.4-4.7,6.4Z"/>
      <path class="st6" d="M205.9,100.1h4.7v10.5c.8-1.4,2.5-2.8,5.8-2.8,5.2,0,8,4.3,8,9.8s-2.9,10.6-8.5,10.6-4.4-1-5.3-2.5c0,.8,0,1.6-.2,2.1h-4.5c0-2.1,0-4.3,0-6.4v-21.3ZM219.6,117.8c0-3.6-1.4-6.1-4.5-6.1s-4.6,2.3-4.6,6.5,1.1,6.3,4.6,6.3,4.6-2.6,4.6-6.7Z"/>
      <path class="st6" d="M231.2,108.3c2.4,7.6,4.1,13.3,4.5,15.2h0c.5-2,1.7-6.4,4.3-15.2h4.7l-6.7,20.1c-1.9,5.6-3.4,7.2-7.9,7.2s-1.5,0-2.4-.1v-3.9c.4,0,1,0,1.5,0,2.1,0,3.1-.8,4-3.3l-7.2-20.1h5.1Z"/>
    </g>
  </g>
  <rect class="st3" x="8.8" y="14.1" width="563.5" height="279.4" rx="20.5" ry="20.5"/>
</svg>