<!--?xml version="1.0" encoding="UTF-8"?-->
<svg
  id="Capa_1"
  xmlns="http://www.w3.org/2000/svg"
  version="1.1"
  viewBox="0 0 24 24"
  fill="none"
  stroke="currentColor"
  stroke-width="2"
  stroke-linecap="round"
  stroke-linejoin="round"
  width="24"
  height="24"
>
  <path stroke="none" d="M0 0h24v24H0z" fill="none"></path>
  <g>
    <path
      
      d="M17.5,11.6c-.3-.3-.5-.5-.8-.8-.3.2-.5.2-.8.1-1-.1-1.9-.2-2.9-.3-.2,0-.4-.1-.6-.3-.1.2-.2.4-.3.7.1,0,.2,0,.3.1.6.2,1.2.4,1.7.7.3.2.4.5.3.8-.4,1.4-.8,2.9-1.2,4.3,0,.3-.3.5-.7.5-.4,0-.7-.2-.8-.6,0-.1,0-.3,0-.4.3-1.1.6-2.2.9-3.4,0,0,0-.1,0-.2-.3,0-.5-.2-.8-.3-1-.3-2.1-.6-3.1-.8-.5-.1-.8-.5-.7-1.1.3-1.3.7-2.6,1.6-3.6.4-.5.8-.9,1.4-1.3,0,0,.2-.1.3-.2.4-.2.9,0,1,.5.3.7.6,1.5.8,2.2,0,.2.1.4.2.6,0,0,.1.1.2.1.9,0,1.7.2,2.6.3.4,0,.6.2.7.6,0,0,0,.1.1.2.4.4.8.7,1.2,1.1,0,0,0,0,.1,0,1,.4,1.9,1,2.9,1.6.5.3.9.6,1.4.9-.4.4-.7.9-1.1,1.3-1.3-.9-2.7-1-4.1-.2-1.4.8-2,2-1.9,3.5h-5.5c0-1.2-.5-2.3-1.4-3.1-.9-.8-2.1-1.1-3.2-.8s-1.1.3-1.5.7-.9-1.1-.8-1.4c.1-.4.1-.5-.2-.6-.4-.2-.8-.3-1.1-.5,0,0-.1,0-.1-.1,0-.4-.1-.9-.2-1.3,0,0,5.1,0,6.2,0,.1,0,.2,0,.2.1.2.5.6.7,1,.8,1.1.3,2.1.6,3.2.9,0,0,0,0,0,0-.1.5-.3.9-.4,1.4-.2.6-.3,1.2-.5,1.8-.2.7.2,1.3.8,1.5.6.2,1.2-.2,1.4-.9.4-1.3.7-2.6,1.1-3.9,0-.2.1-.4.2-.6,0,0,0-.1.2-.2.8-.2,1.6-.5,2.4-.7,0,0,0,0,.2,0Z"
    ></path>
    <path
      
      d="M19.3,15c1.9,0,3.3,1.5,3.3,3.4,0,1.8-1.5,3.3-3.4,3.3-1.8,0-3.3-1.5-3.3-3.4,0-1.8,1.5-3.3,3.3-3.3ZM18,18.3c0,.7.6,1.3,1.2,1.3.7,0,1.2-.6,1.3-1.2,0-.7-.6-1.3-1.3-1.3-.7,0-1.2.6-1.2,1.2Z"
    ></path>
    <path
      
      d="M6.3,15c1.8,0,3.3,1.5,3.3,3.3,0,1.8-1.5,3.3-3.3,3.3-1.8,0-3.3-1.5-3.3-3.4,0-1.8,1.5-3.3,3.3-3.3ZM7.5,18.3c0-.7-.6-1.2-1.3-1.2-.7,0-1.2.6-1.2,1.2,0,.7.6,1.3,1.2,1.3.7,0,1.3-.6,1.2-1.3Z"
    ></path>
    <path
      
      d="M14.8,7c-.6-.3-1.1-.7-1.7-1-.6-.3-1.2-.7-1.7-1,0,0-.1-.1-.1-.2,0-.4,0-.9.2-1.3.2-.8.8-1.1,1.5-1.1,1.2,0,2.2.5,2.9,1.5,0,0,0,0,0,.2h-1.9c0,.4,0,.8,0,1.2,0,0,0,0,.1.1.3.2.6.3.8.5,0,0,.1.1,0,.2-.1.3-.2.6-.3.9Z"
    ></path>
    <path
      
      d="M19.5,10.8c0,.2,0,.4,0,.6,0,0,0,.2-.1.2,0,0-.2,0-.2,0-.3-.2-.5-.4-.8-.6-.2-.1-.2-.2,0-.4.2-.2.5-.4.8-.6,0,0,.2,0,.2,0,0,0,0,.1.1.2,0,.2,0,.4,0,.6h0Z"
    ></path>
    <path
      
      d="M14.3,4.2c.2,0,.4,0,.6,0,0,0,.1,0,.1,0,0,.4,0,.8-.2,1.2-.2-.1-.3-.2-.5-.3,0,0,0,0,0,0,0-.3,0-.6,0-.9Z"
    ></path>
    <path
      
      d="M19.3,17.6c.4,0,.7.3.7.7,0,.4-.3.7-.7.7-.4,0-.7-.3-.7-.7,0-.4.3-.7.7-.7Z"
    ></path>
    <path
      
      d="M6.3,19.1c-.4,0-.7-.3-.7-.7,0-.4.3-.7.7-.7.4,0,.7.3.7.7,0,.4-.3.7-.7.7Z"
    ></path>
  </g>
</svg>
