<?xml version="1.0" encoding="UTF-8"?>
<svg id="Capa_1" xmlns="http://www.w3.org/2000/svg" version="1.1" viewBox="0 0 100 100">
  <!-- Generator: Adobe Illustrator 29.1.0, SVG Export Plug-In . SVG Version: 2.1.0 Build 142)  -->
  <defs>
    <style>
      .st0 {
        fill: #e94e1b;
      }

      .st1 {
        fill: #fff;
      }
    </style>
  </defs>
  <g>
    <path class="st0" d="M19.33,84.8c-.13,0-.25.01-.37.01.01,0,.03,0,.04,0,.11,0,.22,0,.33-.01Z"/>
    <path class="st0" d="M80.15,84.73c.46.07.9.09,1.3.08.05,0,.1,0,.15,0,0,0,.02,0,.02,0-.05,0-.11,0-.16,0,1.05-.03,1.89-.31,2.46-.89.79-.79,1.04-2.06.82-3.72-.59-4.31,2.19-8.46,6.4-9.55,1.62-.42,2.7-1.14,3.13-2.17.43-1.04.18-2.33-.69-3.8-2.24-3.81-1.24-8.78,2.29-11.44,1.36-1.02,2.09-2.11,2.09-3.24s-.72-2.19-2.06-3.21c-3.47-2.63-4.43-7.53-2.23-11.28.85-1.45,1.11-2.72.68-3.75-.43-1.04-1.52-1.77-3.17-2.2-4.28-1.11-7.09-5.33-6.47-9.71.24-1.69-.01-2.97-.81-3.77-.79-.79-2.06-1.04-3.72-.82-4.31.59-8.46-2.19-9.55-6.4-.42-1.62-1.14-2.7-2.17-3.13-1.04-.43-2.33-.18-3.8.69-3.81,2.24-8.78,1.24-11.44-2.29-1.02-1.36-2.11-2.09-3.24-2.09s-2.19.72-3.21,2.06c-2.63,3.47-7.53,4.43-11.28,2.23-1.45-.85-2.72-1.11-3.75-.68-1.04.43-1.77,1.52-2.2,3.17-1.11,4.28-5.33,7.09-9.71,6.47-1.69-.24-2.97.01-3.77.81-.79.79-1.04,2.06-.82,3.72.59,4.31-2.19,8.46-6.4,9.55-1.62.42-2.7,1.14-3.13,2.17-.43,1.04-.18,2.33.69,3.8,2.24,3.81,1.24,8.78-2.29,11.44-1.36,1.02-2.09,2.11-2.09,3.24s.72,2.19,2.06,3.21c3.47,2.63,4.43,7.53,2.23,11.28-.85,1.45-1.11,2.72-.68,3.75.43,1.04,1.52,1.77,3.17,2.2,4.28,1.11,7.09,5.33,6.47,9.71-.24,1.69.01,2.97.81,3.77.79.79,2.06,1.04,3.72.82,4.31-.59,8.46,2.19,9.55,6.4.42,1.62,1.14,2.7,2.17,3.13,1.04.43,2.33.18,3.8-.69,3.81-2.24,8.78-1.24,11.44,2.29,1.02,1.36,2.11,2.09,3.24,2.09s2.19-.72,3.21-2.06c2.63-3.47,7.53-4.43,11.28-2.23,1.45.85,2.72,1.11,3.75.68,1.04-.43,1.77-1.52,2.2-3.17,1.11-4.28,5.33-7.09,9.71-6.47Z"/>
  </g>
  <g>
    <path class="st1" d="M37.19,53.74c0,2.81-1.82,4.32-5.33,4.32h-7.11v-14.57h7.15c2.63,0,3.99,1.16,3.99,3.41,0,1.55-.64,2.58-1.78,3.02,1.86.39,3.08,1.7,3.08,3.82ZM31.01,49.42c1.45,0,2.17-.58,2.17-1.8,0-1.1-.7-1.63-2.13-1.63h-3.47v3.43h3.43ZM34.13,53.52c0-1.28-.85-2.03-2.81-2.03h-3.68v4.09h3.74c1.94,0,2.75-.7,2.75-2.07Z"/>
    <path class="st1" d="M49.74,43.49v2.52h-7.77v3.74h6.49v2.44h-6.49v3.35h8.21v2.52h-11.08v-14.57h10.65Z"/>
    <path class="st1" d="M51.55,57.01l1.1-2.52c1.63.79,3.25,1.26,4.98,1.26,1.63,0,2.58-.58,2.58-1.74-.02-1.14-1.05-1.51-3.08-1.9-3.2-.64-5.38-1.61-5.38-4.49,0-2.65,1.82-4.42,5.48-4.42,2.21,0,4.05.45,5.48,1.14l-1.2,2.44c-1.22-.52-2.69-.93-4.28-.93s-2.48.68-2.48,1.59c0,1.16,1.32,1.55,3.56,2.01,2.87.58,4.94,1.49,4.94,4.36s-1.88,4.55-5.48,4.55c-2.56,0-4.22-.43-6.22-1.34Z"/>
    <path class="st1" d="M64.08,46.03v-2.54h12.26v2.54h-4.65v12.03h-2.96v-12.03h-4.65Z"/>
  </g>
  <g>
    <path class="st1" d="M19,72.89l.89-2.04c1.32.64,2.63,1.02,4.03,1.02,1.32,0,2.09-.47,2.09-1.41-.02-.92-.85-1.22-2.49-1.54-2.59-.52-4.35-1.31-4.35-3.63,0-2.14,1.47-3.58,4.44-3.58,1.79,0,3.28.37,4.44.92l-.97,1.98c-.99-.42-2.18-.75-3.46-.75s-2.01.55-2.01,1.29c0,.94,1.07,1.26,2.88,1.62,2.33.47,4,1.21,4,3.53s-1.52,3.68-4.44,3.68c-2.08,0-3.42-.35-5.04-1.09Z"/>
    <path class="st1" d="M38.67,61.94v2.04h-6.29v3.03h5.26v1.98h-5.26v2.71h6.65v2.04h-8.97v-11.8h8.62Z"/>
    <path class="st1" d="M43.13,61.94v9.68h6.26v2.13h-8.64v-11.8h2.38Z"/>
    <path class="st1" d="M53.07,61.94v9.68h6.26v2.13h-8.64v-11.8h2.38Z"/>
    <path class="st1" d="M69.27,61.94v2.04h-6.29v3.03h5.26v1.98h-5.26v2.71h6.65v2.04h-8.97v-11.8h8.62Z"/>
    <path class="st1" d="M76.13,70.4h-2.43v3.35h-2.36v-11.8h4.79c3.11,0,4.77,1.49,4.77,4.22,0,1.89-.84,3.16-2.36,3.78l2.8,3.8h-2.86l-2.34-3.35ZM78.44,66.24c0-1.49-.79-2.26-2.49-2.26h-2.24v4.39h2.04c1.84,0,2.69-.87,2.69-2.13Z"/>
  </g>
  <path class="st1" d="M58.42,24.4c.57-.5.27-1.45-.49-1.52l-4.1-.39c-.95-.09-1.78-.69-2.16-1.57l-1.64-3.78c-.3-.7-1.29-.7-1.6,0l-1.64,3.78c-.38.88-1.21,1.48-2.16,1.57l-4.1.39c-.76.07-1.07,1.01-.49,1.52l3.09,2.73c.72.63,1.03,1.6.82,2.54l-.9,4.02c-.17.74.64,1.33,1.29.94l3.55-2.1c.82-.49,1.85-.49,2.67,0l3.55,2.1c.66.39,1.46-.19,1.29-.94l-.9-4.02c-.21-.93.11-1.91.82-2.54l3.09-2.73Z"/>
</svg>