<?xml version="1.0" encoding="UTF-8"?>
<svg id="Capa_2" xmlns="http://www.w3.org/2000/svg" viewBox="0 0 50 49.98">
  <defs>
    <style>
      .cls-1 {
        fill: #00662b;
      }
    </style>
  </defs>
  <g id="Capa_1-2" data-name="Capa_1">
    <g>
      <path class="cls-1" d="M.01,12.8h49.95c.01.18.03.33.03.49,0,10.06,0,20.13,0,30.19,0,3.28-2.13,5.82-5.32,6.41-.41.07-.83.08-1.25.08-12.28,0-24.56,0-36.84,0-3.33,0-5.88-2.09-6.48-5.31-.08-.41-.09-.83-.09-1.25,0-10.03,0-20.05,0-30.08,0-.16,0-.32,0-.54ZM24.95,40.69c3.32,0,6.65,0,9.97,0,1.36,0,2.72.02,4.09,0,.9-.02,1.63-.73,1.7-1.61.06-.85-.54-1.65-1.39-1.83-.23-.05-.47-.04-.7-.04-9.06,0-18.13,0-27.19,0-.16,0-.33-.01-.49,0-.71.08-1.22.45-1.49,1.11-.48,1.18.41,2.37,1.78,2.37,4.58,0,9.15,0,13.73,0ZM25.03,27.91c-4.05,0-8.1,0-12.15,0-.64,0-1.27-.01-1.91,0-.83.03-1.52.67-1.65,1.47-.12.77.34,1.59,1.11,1.87.28.1.6.13.91.14,9.12,0,18.23,0,27.35,0,.22,0,.44-.02.65-.06.7-.16,1.14-.62,1.32-1.3.17-.66-.06-1.21-.54-1.67-.4-.38-.89-.45-1.41-.45-4.56,0-9.12,0-13.67,0ZM15.7,22.07c1.47,0,2.94,0,4.41,0,.29,0,.59-.02.85-.12.81-.29,1.26-1.12,1.1-1.96-.15-.82-.88-1.4-1.83-1.4-3.01,0-6.03-.01-9.04,0-1.1,0-1.89.77-1.88,1.77.01.98.79,1.71,1.87,1.71,1.51.01,3.01,0,4.52,0Z"/>
      <path class="cls-1" d="M49.99,9.27H.02c.07-1.7-.24-3.4.37-5.06.46-1.24,1.22-2.26,2.3-3.03C3.71.46,4.84.06,6.09,0c.05,0,.11,0,.16,0,12.51,0,25.03-.01,37.54.01,2.73,0,5.09,1.83,5.9,4.43.16.51.26,1.06.28,1.6.04,1.05.01,2.1.01,3.22Z"/>
    </g>
  </g>
</svg>