<?xml version="1.0" encoding="UTF-8"?>
<svg id="Capa_2" xmlns="http://www.w3.org/2000/svg" viewBox="0 0 50 50">
  <defs>
    <style>
      .cls-1 {
        fill: #04b24b;
      }

      .cls-2 {
        fill: #00662b;
      }
    </style>
  </defs>
  <g id="Capa_1-2" data-name="Capa_1">
    <g>
      <path class="cls-2" d="M25,0v12.5h-1.81c-.65,0-1.18.53-1.18,1.18v8.34h-8.34c-.65,0-1.18.53-1.18,1.18v1.81H0V3.9C0,1.75,1.75,0,3.9,0h21.1Z"/>
      <path class="cls-1" d="M50,3.9v21.1h-12.5v-1.81c0-.65-.53-1.18-1.18-1.18h-8.34v-8.34c0-.65-.53-1.18-1.18-1.18h-1.8V0h21.09c2.16,0,3.9,1.75,3.9,3.9Z"/>
      <path class="cls-1" d="M25,37.51v12.49H3.9c-2.16,0-3.9-1.75-3.9-3.9v-21.09h12.5v1.8c0,.65.53,1.19,1.19,1.19h8.33v8.33c0,.65.53,1.19,1.19,1.19h1.8Z"/>
      <path class="cls-2" d="M50,25v21.09c0,2.16-1.75,3.9-3.9,3.9h-21.09v-12.49h1.8c.65,0,1.18-.53,1.18-1.18v-8.34h8.34c.65,0,1.18-.53,1.18-1.18v-1.81h12.5Z"/>
    </g>
  </g>
</svg>