<?xml version="1.0" encoding="UTF-8"?>
<svg id="Capa_2" xmlns="http://www.w3.org/2000/svg" viewBox="0 0 50 33.46">
  <defs>
    <style>
      .cls-1 {
        fill: #00662b;
      }
    </style>
  </defs>
  <g id="Capa_1-2" data-name="Capa_1">
    <g>
      <path class="cls-1" d="M0,16.94c.16-.69.29-1.39.49-2.07,1.43-4.67,4.43-7.89,8.98-9.67.07-.03.15-.05.33-.11-1.83,3.94-2.36,8.06-2.58,12.34H0C0,17.27,0,17.11,0,16.94Z"/>
      <path class="cls-1" d="M0,20.36h7.23c.22,4.21.74,8.35,2.59,12.33-.52-.21-.94-.35-1.34-.54C3.81,29.88.99,26.21.09,21.08c-.02-.11-.06-.22-.09-.32,0-.13,0-.26,0-.39Z"/>
      <path class="cls-1" d="M47.02,13.8v-4.33c-3.44.62-6.84,1.23-10.3,1.85,0,.18-.02.37-.02.56,0,2.05.01,4.1,0,6.15-.02,2.61-1.97,4.53-4.52,4.48-2.39-.04-4.34-2.1-4.24-4.5.1-2.5,2.15-4.39,4.6-4.23.37.02.74.09,1.19.15,0-.19,0-.38,0-.56,0-3.04,0-6.08,0-9.13,0-1.16.43-1.65,1.56-1.85,4.17-.76,8.34-1.53,12.51-2.3.61-.11,1.24-.22,1.69.29.26.29.49.74.49,1.11.03,5.6.04,11.19,0,16.79-.01,2.33-1.88,4.18-4.14,4.22-2.41.05-4.33-1.72-4.51-4.14-.16-2.22,1.55-4.29,3.8-4.56.6-.07,1.22-.01,1.88-.01ZM47.05,3.25c-3.5.65-6.91,1.28-10.33,1.91v3.15c.24-.04.44-.06.65-.1,1.18-.21,2.37-.42,3.55-.64,1.92-.35,3.84-.69,5.76-1.06.14-.03.35-.21.36-.32.03-.96.02-1.92.02-2.94Z"/>
      <path class="cls-1" d="M18.74,17.38h-8.53c.05-.79.08-1.56.15-2.33.25-2.74.72-5.44,1.85-7.98.31-.71.71-1.39,1.18-2.01.77-1.02,1.44-1,2.24-.02.85,1.04,1.35,2.25,1.76,3.51.92,2.8,1.3,5.69,1.39,8.63,0,.05-.02.09-.03.2Z"/>
      <path class="cls-1" d="M18.8,20.38c-.19,3.81-.62,7.51-2.3,10.94-.28.58-.66,1.12-1.09,1.6-.63.72-1.15.7-1.81.01-.81-.84-1.28-1.88-1.68-2.94-.9-2.36-1.33-4.81-1.56-7.32-.07-.76-.1-1.51-.15-2.3h8.59Z"/>
      <path class="cls-1" d="M19.21,32.63c1.81-3.89,2.34-8.01,2.56-12.27.59,0,1.16,0,1.74,0,.55,0,1.2-.17,1.63.06.38.21.47.9.79,1.31.58.75,1.22,1.46,1.86,2.17.16.18.32.27.19.56-1.71,3.93-4.56,6.65-8.57,8.15-.04.01-.08.01-.19.03Z"/>
      <path class="cls-1" d="M27.61,12.49c-1.5,1.31-2.38,2.93-2.61,4.89h-3.23c-.22-4.21-.74-8.33-2.59-12.31,3.85,1.41,6.6,3.86,8.43,7.42Z"/>
    </g>
  </g>
</svg>