<?xml version="1.0" encoding="UTF-8"?>
<svg id="Capa_2" xmlns="http://www.w3.org/2000/svg" viewBox="0 0 50 38.37">
  <defs>
    <style>
      .cls-1 {
        fill: #00662b;
      }
    </style>
  </defs>
  <g id="Capa_1-2" data-name="Capa_1">
    <g>
      <path class="cls-1" d="M17.2,4.23c-1.12-.37-1.38-.73-1.38-1.88,0-.33-.01-.66,0-.99.05-.74.61-1.29,1.34-1.35.14-.01.28,0,.42,0C25.8,0,34,.01,42.2,0c.82,0,1.54.21,1.82,1.01.3.86.4,1.8-.26,2.57-.28.33-.76.49-1.22.78v14.26c4.32,1.5,6.04,4.85,6.55,9.06.09.76.09,1.52.14,2.29.8.36.89.57.67,1.44-.05.18-.11.37-.17.55-.47,1.51-.57,1.58-2.22,1.35.16-2.59-.66-4.81-2.66-6.52-1.51-1.29-3.28-1.86-5.25-1.76-3.91.2-7.43,3.58-7.08,8.33-5.27-.28-10.53-.56-15.83-.84-.08-2.43-.98-4.44-2.89-5.94-1.46-1.15-3.14-1.64-5-1.59-2.99.09-6.86,2.39-7.18,7.44-.58-.61-.93-1.29-1.21-2.01-.76-1.91-.36-3.74.51-5.48,1.47-2.98,3.82-4.8,7.19-5.14.42-.04.67-.2.88-.59,2.62-4.81,5.27-9.62,7.91-14.43.1-.18.2-.36.32-.58ZM17.73,29.14c.21.01.38.03.55.03.75,0,1.49,0,2.24,0,3.32,0,6.64,0,9.96,0,.18,0,.49-.08.52-.18.3-1.1.55-2.21.8-3.3-.08-.05-.11-.09-.14-.09-.86-.12-1.72-.23-2.58-.35-.98-.14-1.46-.92-1.15-1.86.33-.97,1.24-1.66,2.29-1.68.68-.02,1.36,0,2.03,0,1.27,0,2-.68,2.12-1.95.15-1.73.3-3.46.45-5.19.02-.26.05-.52.13-.77.2-.59.83-.94,1.45-.84.61.1,1.08.61,1.1,1.27.02,1.09,0,2.19,0,3.3.56.18,1.09.36,1.64.54V4.19c-.12,0-.21-.02-.29-.02-6.22,0-12.44,0-18.66-.01-.35,0-.48.16-.62.42-2.59,4.73-5.19,9.46-7.79,14.2-.08.15-.15.3-.24.49.16,0,.28.01.39,0,1.74-.25,3.47-.5,5.2-.76.73-.11,1.12.23,1.11.98,0,.33,0,.67,0,.99,1.17-1.18,2.33-2.35,3.54-3.57-.26-.25-.57-.53-.86-.82-.42-.42-.45-.94-.09-1.29.36-.36.86-.34,1.29.09,1,.99,2,1.98,2.99,2.98.42.42.44.94.08,1.29-.37.36-.84.33-1.28-.13-.28-.29-.52-.63-.8-.97-1.41,1.41-2.63,2.72-3.95,3.93-.81.74-1.34,1.51-1.18,2.64.01.1-.02.21-.02.31-.08,1.38-.15,2.77-.23,4.2Z"/>
      <path class="cls-1" d="M14.99,32.52c0,3.24-2.61,5.85-5.86,5.85-3.18,0-5.81-2.62-5.81-5.8,0-3.25,2.59-5.87,5.83-5.88,3.2-.01,5.83,2.61,5.84,5.82ZM11.65,32.55c0-1.36-1.1-2.49-2.46-2.51-1.39-.02-2.53,1.1-2.54,2.49-.01,1.36,1.1,2.5,2.46,2.51,1.39.01,2.53-1.1,2.54-2.49Z"/>
      <path class="cls-1" d="M45.85,32.52c0,3.24-2.61,5.85-5.86,5.85-3.18,0-5.81-2.62-5.81-5.8,0-3.25,2.59-5.87,5.84-5.88,3.2-.01,5.83,2.61,5.84,5.82ZM42.51,32.51c-.01-1.36-1.13-2.47-2.5-2.48-1.38,0-2.51,1.13-2.5,2.52,0,1.36,1.14,2.48,2.5,2.48,1.39,0,2.51-1.14,2.5-2.52Z"/>
    </g>
  </g>
</svg>