<?xml version="1.0" encoding="UTF-8"?>
<svg id="Capa_2" xmlns="http://www.w3.org/2000/svg" viewBox="0 0 50 47.64">
  <defs>
    <style>
      .cls-1 {
        fill: #00662b;
      }
    </style>
  </defs>
  <g id="Capa_1-2" data-name="Capa_1">
    <g>
      <path class="cls-1" d="M.92,1.27c.63.55,1.08.9,1.48,1.3,12.63,12.62,25.26,25.24,37.88,37.87.36.36.74.72,1.05,1.13,1.18,1.56.95,3.81-.49,5.05-1.45,1.26-3.71,1.21-5.06-.25-1.09-1.18-2.03-2.48-3.03-3.74-4.11-5.18-8.24-10.35-12.32-15.55-1.21-1.55-2.67-2.33-4.64-2.73-1.74-.35-3.59-1.2-4.92-2.38C6.08,17.72,2.72,12.43.58,6.39.02,4.8-.52,3.08.92,1.27Z"/>
      <path class="cls-1" d="M27.96,25.61c-1.22-1.24-2.38-2.43-3.6-3.67,1.61-1.32,1.79-3.01,1.37-4.89-.44-2,.2-3.7,1.69-5.03,4.31-3.85,8.63-7.7,13-11.48.4-.34,1.39-.8,1.79-.34.38.43-.19,1.25-.55,1.62-2.91,2.99-5.89,5.92-8.83,8.88-.78.79-1.99,1.54-.75,2.85,1.2,1.27,2.04.28,2.89-.53,2.93-2.79,5.84-5.61,8.84-8.32.52-.47,1.68-1.27,2.22-.71.51.54-.3,1.57-.75,2.08-2.81,3.09-5.69,6.11-8.59,9.12-.82.85-1.25,1.64-.22,2.61.98.92,1.69.4,2.45-.36,2.98-3.01,5.96-6.03,9.02-8.97.43-.42,1.42-1.1,1.9-.63.45.44-.17,1.37-.54,1.8-3.79,4.36-7.64,8.67-11.5,12.98-1.3,1.46-3,1.96-4.89,1.6-1.87-.36-3.59-.31-4.95,1.41Z"/>
      <path class="cls-1" d="M18.4,27.36c1.26,1.59,2.44,3.07,3.69,4.65-4.56,4.91-9.02,9.77-13.56,14.55-1.43,1.5-3.73,1.39-5.19-.01-1.42-1.36-1.52-3.74,0-5.17,4.93-4.66,9.93-9.25,15.06-14.01Z"/>
    </g>
  </g>
</svg>