<?xml version="1.0" encoding="UTF-8"?>
<svg id="Capa_2" xmlns="http://www.w3.org/2000/svg" viewBox="0 0 50 45.34">
  <defs>
    <style>
      .cls-1 {
        fill: #00662b;
      }
    </style>
  </defs>
  <g id="Capa_1-2" data-name="Capa_1">
    <g>
      <path class="cls-1" d="M37.86,21.68c-.65-.62-1.24-1.19-1.86-1.78-.61.48-1.29.41-1.98.33-2.29-.25-4.59-.5-6.88-.73-.55-.06-1.01-.26-1.41-.71-.26.54-.5,1.03-.77,1.57.25.09.48.17.71.25,1.37.47,2.74.96,3.98,1.74.64.4.92,1.09.72,1.81-.96,3.4-1.93,6.79-2.89,10.19-.22.78-.82,1.23-1.59,1.22-.88-.01-1.61-.52-1.77-1.3-.06-.28-.04-.61.04-.89.73-2.64,1.49-5.27,2.23-7.91.04-.12.07-.25.11-.42-.62-.23-1.2-.51-1.82-.68-2.45-.68-4.9-1.34-7.36-1.97-1.25-.32-1.89-1.21-1.65-2.48.61-3.15,1.76-6.07,3.78-8.6.93-1.16,1.99-2.18,3.25-2.98.23-.15.48-.28.73-.39,1.04-.42,2.04.01,2.44,1.06.66,1.75,1.3,3.51,1.95,5.26.18.49.35,1,.56,1.48.06.13.24.29.38.3,2.04.23,4.09.45,6.13.65.85.09,1.42.5,1.68,1.33.05.14.14.28.25.39.91.88,1.83,1.75,2.74,2.63.08.07.16.15.25.19,2.44.98,4.59,2.47,6.81,3.83,1.12.68,2.22,1.41,3.37,2.15-.89,1.05-1.76,2.07-2.63,3.1-3.1-2.01-6.31-2.32-9.54-.5-3.21,1.82-4.59,4.73-4.53,8.34h-12.86c-.12-2.92-1.19-5.36-3.33-7.28-2.17-1.96-4.87-2.66-7.66-1.98-.95.23-2.5.61-3.58,1.54-.76.65-2.01-2.69-1.86-3.19.28-.92.31-1.07-.57-1.45-.88-.38-1.77-.76-2.65-1.15-.13-.06-.29-.18-.31-.3-.17-1.01-.33-2.03-.49-3.11.15,0,11.91,0,14.65,0,.24,0,.4.05.5.28.45,1.11,1.32,1.58,2.46,1.86,2.52.63,5.01,1.4,7.52,2.12.05.01.1.04.18.07-.3,1.07-.6,2.13-.9,3.19-.4,1.42-.81,2.84-1.21,4.26-.45,1.61.35,3.04,1.97,3.49,1.46.41,2.9-.47,3.34-2.01.87-3.05,1.74-6.11,2.61-9.16.13-.44.25-.89.36-1.33.06-.22.17-.34.41-.42,1.86-.58,3.71-1.18,5.57-1.77.11-.04.22-.07.41-.14Z"/>
      <path class="cls-1" d="M42.19,29.68c4.4.04,7.85,3.57,7.8,7.96-.05,4.29-3.61,7.74-7.96,7.69-4.29-.04-7.73-3.6-7.7-7.95.04-4.26,3.59-7.75,7.85-7.71ZM39.23,37.49c0,1.63,1.3,2.95,2.93,2.96,1.6,0,2.93-1.3,2.95-2.9.02-1.64-1.3-2.97-2.95-2.97-1.6,0-2.91,1.31-2.92,2.92Z"/>
      <path class="cls-1" d="M11.58,29.68c4.34,0,7.81,3.51,7.8,7.87-.01,4.31-3.52,7.79-7.86,7.78-4.34,0-7.8-3.53-7.79-7.94,0-4.25,3.54-7.72,7.84-7.72ZM14.5,37.5c0-1.63-1.31-2.93-2.95-2.93-1.6,0-2.92,1.32-2.93,2.92,0,1.61,1.33,2.96,2.94,2.96,1.63,0,2.95-1.33,2.94-2.95Z"/>
      <path class="cls-1" d="M31.55,10.86c-1.33-.79-2.61-1.54-3.89-2.3-1.36-.8-2.72-1.61-4.09-2.4-.22-.13-.33-.27-.3-.53.15-1.03.21-2.07.45-3.08C24.18.68,25.66-.08,27.26,0c2.81.16,5.23,1.16,6.86,3.61.06.09.11.17.23.37h-4.44c0,.99,0,1.88.01,2.78,0,.09.14.21.24.27.65.38,1.3.75,1.96,1.11.23.12.28.25.19.5-.26.72-.49,1.44-.75,2.22Z"/>
      <path class="cls-1" d="M42.62,19.79c0,.45.02.9-.01,1.34-.01.17-.12.41-.26.48-.13.07-.39,0-.53-.09-.61-.43-1.21-.89-1.8-1.35-.37-.29-.37-.57.01-.86.58-.45,1.17-.91,1.77-1.33.15-.1.43-.17.56-.1.14.07.23.34.24.52.03.46.01.92.01,1.38h0Z"/>
      <path class="cls-1" d="M30.31,4.39c.52,0,1.02-.01,1.51.01.09,0,.24.13.26.22.24.97.11,1.87-.49,2.74-.4-.24-.8-.47-1.18-.72-.05-.03-.1-.13-.1-.2,0-.66,0-1.31,0-2.05Z"/>
      <path class="cls-1" d="M42.16,35.88c.94,0,1.71.75,1.72,1.69.02.95-.76,1.73-1.73,1.73-.95,0-1.71-.76-1.71-1.71,0-.94.77-1.71,1.71-1.71Z"/>
      <path class="cls-1" d="M11.56,39.3c-.96,0-1.7-.75-1.7-1.71,0-.95.75-1.71,1.71-1.71.95,0,1.71.77,1.71,1.71,0,.94-.76,1.71-1.71,1.7Z"/>
    </g>
  </g>
</svg>