<?xml version="1.0" encoding="UTF-8"?>
<svg id="Capa_2" xmlns="http://www.w3.org/2000/svg" viewBox="0 0 50 47.51">
  <defs>
    <style>
      .cls-1 {
        fill: #00662b;
      }
    </style>
  </defs>
  <g id="Capa_1-2" data-name="Capa_1">
    <g>
      <path class="cls-1" d="M50,22.49v.98c-.31.5-.56,1.06-.95,1.49-.48.53-1.19.62-1.89.62-1.09,0-2.17,0-3.31,0v.62c0,6.53,0,13.05,0,19.58,0,1.18-.54,1.73-1.73,1.73h-17.95c.56-1.43,1.03-2.9,1.42-4.4,1.11-4.28,1.46-8.63.96-13.02.22-.12.46-.18.6-.33.3-.34.6-.29.97-.14,4.12,1.62,6.67,4.65,7.91,8.84.1.33.15.69.57.72.41.03.52-.31.65-.6.77-1.7,1.08-3.47.78-5.31-.49-2.96-1.95-5.23-4.77-6.46-1.27-.56-2.62-.64-4-.51.07-.04.13-.08.2-.11,3.14-1.42,6.01-.76,8.76,1.07.19.13.59.23.7.13.17-.14.28-.51.23-.73-.79-3.1-4.42-5.58-7.61-5.18-.85.11-1.68.38-2.47.57.7-.77,1.57-1.43,2.55-1.96.3-.16.58-.32.49-.72-.08-.37-.41-.42-.72-.43-2.66-.09-4.88.74-6.45,3-.03.05-.08.08-.11.11-2.04-2.66-4.72-3.51-7.93-2.94-.21.04-.51.3-.53.47-.01.18.27.39.42.59.03.03.09.04.13.06,1.02.61,2.07,1.18,3.05,1.85.54.37.98.89,1.46,1.35-.04.07-.03.05-.08.12-.13-.05-.26-.1-.39-.15-3.7-1.52-8.23.17-10,3.74-.12.24-.17.61-.06.82.18.37.55.19.85.08,1.88-.66,3.83-.97,5.82-.88.85.04,1.69.18,2.54.28,0,.05,0,.09,0,.14-.06.01-.11.02-.16.03-2.04.36-3.64,1.38-4.79,3.1-2.03,3.03-1.82,7.52.49,10.39.13.16.46.31.63.26.17-.05.34-.35.38-.57.14-.76.16-1.56.36-2.31.91-3.41,2.73-6.18,5.79-8.05.51-.31.99-.46,1.65-.02-.16,1.58-.24,3.26-.52,4.9-.74,4.43-2.27,8.47-4.47,12.18H7.97c-1.31,0-1.82-.51-1.82-1.84,0-6.49,0-12.99,0-19.48v-.62c-.27,0-.47,0-.68,0-1.07-.01-2.15.02-3.22-.05-.93-.06-1.6-.6-2-1.44-.53-1.13-.24-2.22.85-3.22C8.42,14.2,15.74,7.54,23.05.88c.23-.21.47-.4.74-.55,1.07-.59,2.14-.38,3.2.58,7.17,6.53,14.33,13.07,21.51,19.59.63.57,1.23,1.15,1.5,1.99Z"/>
      <path class="cls-1" d="M43.46,11.16c-3.77-3.43-7.48-6.8-11.24-10.22.17-.03.27-.05.37-.05,3.11,0,6.22,0,9.32,0,.97,0,1.57.58,1.57,1.54,0,2.81,0,5.63,0,8.44,0,.06-.01.12-.03.29Z"/>
    </g>
  </g>
</svg>