<?xml version="1.0" encoding="UTF-8"?>
<svg id="Capa_1" xmlns="http://www.w3.org/2000/svg" version="1.1" viewBox="0 0 60 58">
  <!-- Generator: Adobe Illustrator 29.2.1, SVG Export Plug-In . SVG Version: 2.1.0 Build 116)  -->
  <defs>
    <style>
      .st0 {
        fill: #e94e1b;
      }

      .st1 {
        fill: #fff;
      }
    </style>
  </defs>
  <path class="st0" d="M5.52,27.22l4.43-1.65c.27-.1.57.02.67.28l.14.33c.13-.07.31-.17.39-.27.05-.06.06-.08.05-.11,0-.02-.05-.13-.07-.19-.26-.84-.29-1.98.38-2.7l-1.74-.29,3.13-1.23c0-.12-.01-.24-.01-.37,0-.06,0-.13,0-.19.03-.92.28-1.79.7-2.54.11-.2.23-.39.36-.57.98-1.37,2.55-2.25,4.31-2.25,2.08,0,3.87,1.21,4.77,2.98h0c.57.8,1.25,1.65,1.98,2.5.6-.88,1.36-1.65,2.22-2.28l17.2-12.66,5.56-4.09s.23.64-1.72,9.97c-.03.12-.06.24-.08.36l.2-.08,6.38-2.51s.07.68-4.1,9.2c-2.02,4.13-5.28,7.29-8.1,9.45-3,2.3-5.51,3.46-5.51,3.46.49-1.1,1.13-2.82,1.64-4.23-.28.25-.44.39-.44.39.04-.24.08-.51.12-.8-.79,1.29-1.89,2.98-3.01,4.37,4.1,4.46,7.93,9.54,8.93,11.1h.37l9.36,10.78c.8.91.35,2.31-.69,2.66-.15.05-.32.08-.5.08h-.69c-2.2,0-4.27-1.12-5.53-2.99l-2.54-3.82s-.07.04-.1.06c-.41.18-.97-.13-1.5-.75-.4-.46-.79-1.1-1.09-1.85-.2-.5-.34-.98-.43-1.44,0,.03,0,.07,0,.1-.05.86.01,1.68.16,2.36.21,1.01.46,1.97,1.31,2.12-.04.13-.21.17-.37.23-.08.01-.12.02-.19.01-.56-.03-1.03-.69-1.3-1.7-.2-.75-.3-1.7-.24-2.71.03-.62.12-1.2.24-1.72l-.65-.98h-9.82s0,.03,0,.05h-6.24c-.75,0-1.45-.13-2.11-.37-3.73-1.11-6.46-4.64-6.51-8.83-.1-1.73-.08-4.18,0-5.48.03-.51-.1-1.05-.3-1.59.06-.16.15-.26.26-.33-.11-.27-.25-.53-.38-.78-.22-.39-.45-.74-.63-1.02,0-.02-.01-.02-.02-.03,0,0,0-.02-.01-.02-.16-.18-.3-.38-.42-.58h0s-.01-.02-.01-.02h0c-.16-.27-.3-.54-.42-.82l-1.18-.19s-.04.07-.08.11c-.44.37-.55.92-.53,1.44,0,.25.05.5.11.74.04.17.14.34.12.52-.03.39-.39.68-.79.88l1.88,4.49c.11.25-.03.54-.29.64l-4.43,1.65c-.27.1-.57-.02-.67-.28l-2.23-5.34c-.11-.25.03-.54.29-.64ZM15.29,21.31c.78,0,1.42-.65,1.42-1.46,0-.41-.16-.77-.42-1.04-.03-.03-.06-.06-.1-.08-.25-.21-.56-.34-.9-.34-.78,0-1.42.65-1.42,1.46s.63,1.46,1.42,1.46ZM9.85,27.77c.5.02.92-.35.93-.83,0-.06,0-.11-.01-.17-.2.09-.41.15-.57.2-.35.11-.47-.43-.12-.53.14-.04.27-.09.41-.15-.15-.14-.36-.23-.59-.23-.5-.02-.92.35-.93.83-.02.47.38.87.87.88Z"/>
  <g>
    <path class="st1" d="M5.38,26.99s.03-.01.04-.01c0,0,.02,0,.02-.01,1.46-.55,2.92-1.13,4.39-1.64.25-.09.52-.07.74.07.15.09.24.23.31.38,0,0,0,0,0,0-.05-.09-.08-.32-.1-.38-.07-.3-.11-.61-.11-.92,0-.49.11-.97.36-1.39l-1.35-.22c-.3-.05-.22-.42,0-.5.98-.38,1.95-.77,2.93-1.15-.08-2.4,1.37-4.8,3.79-5.68,2.21-.8,4.7-.04,6.15,1.69.41.49.69,1.05,1.07,1.55.45.59.92,1.17,1.4,1.74.65-.85,1.43-1.58,2.31-2.23.56-.41,1.12-.82,1.68-1.23,2.04-1.5,4.09-3.01,6.13-4.51,2.14-1.58,4.29-3.16,6.43-4.74.92-.67,1.83-1.35,2.75-2.02,1.78-1.31,3.55-2.61,5.33-3.92.06-.04.11-.08.17-.12.17-.12.39-.09.46.12.09.25,0,.61-.03.86-.16,1.49-.45,2.97-.73,4.45-.29,1.56-.59,3.11-.93,4.66,1.76-.69,3.52-1.39,5.28-2.08.28-.11.57-.22.85-.33.18-.07.34.1.35.25.02.23-.14.54-.21.75-.45,1.23-1.01,2.42-1.55,3.61-.56,1.21-1.13,2.42-1.72,3.63-.7,1.45-1.42,2.88-2.35,4.23-1.62,2.33-3.65,4.4-5.9,6.19-1.84,1.47-3.85,2.83-6,3.88-.04.02-.07.04-.11.05-.19.09-.51-.06-.41-.29.51-1.16.96-2.35,1.39-3.53-.03-.01-.07-.03-.09-.05-.73,1.16-1.51,2.29-2.36,3.37,2.76,3.01,5.36,6.18,7.76,9.46.33.46.66.92.97,1.39.19,0,.36.01.49.16.14.16.28.32.42.49.56.64,1.11,1.28,1.66,1.92,1.56,1.8,3.12,3.59,4.68,5.39.61.7,1.21,1.4,1.82,2.09.27.31.56.61.81.94.48.63.49,1.5.08,2.16-.2.33-.51.6-.87.75-.31.13-.63.13-.97.13-.79,0-1.57-.05-2.33-.27-.9-.26-1.73-.71-2.45-1.29-.88-.71-1.46-1.63-2.07-2.54-.59-.88-1.17-1.76-1.76-2.64-.78.24-1.59-.66-1.98-1.19-.27-.37-.5-.76-.7-1.17.04.25.08.51.14.76.14.6.31,1.47,1.05,1.62.19.04.23.24.17.38-.12.24-.47.37-.73.38-.26,0-.5-.09-.7-.24-.51-.38-.76-1.04-.92-1.61-.4-1.45-.36-3.03-.04-4.5-.17-.26-.34-.52-.52-.77h-9.51s-.1.05-.15.05h-5.48c-.49,0-.98.01-1.46-.04-1.19-.13-2.4-.59-3.42-1.17-.93-.54-1.76-1.23-2.45-2.03-1.46-1.71-2.26-3.86-2.31-6.05-.04-1.36-.09-2.72-.06-4.08.01-.58.07-1.16.06-1.74,0-.39-.1-.78-.22-1.15-.06-.18-.1-.29,0-.47.04-.07.08-.14.14-.19-.26-.58-.59-1.16-.97-1.67-.16-.21-.31-.43-.45-.64,0-.08,0-.09-.01-.05,0,.05-.02.03-.05-.06-.05-.07-.09-.16-.13-.24-.05-.1-.1-.21-.15-.31-.29-.05-.58-.09-.87-.14-.08.09-.17.16-.24.26-.1.16-.16.34-.2.52-.07.38-.03.78.07,1.15.1.36.2.65.01,1-.13.25-.36.43-.6.58.45,1.08.91,2.16,1.36,3.25.11.26.22.53.33.79.06.15.15.32.16.49.03.66-.72.82-1.24,1.01-.75.28-1.5.56-2.26.84-.48.18-.96.39-1.46.54-.44.13-.85-.07-1.02-.47-.06-.13-.11-.27-.17-.4-.26-.63-.53-1.27-.79-1.9-.33-.78-.66-1.57-.98-2.35-.22-.53-.64-1.26.13-1.62ZM5.55,27.93c.08.19.16.39.24.58l.81,1.93c.27.65.54,1.29.81,1.94l.25.6c.07.18.14.32.4.25.4-.11.79-.3,1.18-.44.71-.27,1.43-.53,2.14-.8.27-.1.54-.2.81-.3.11-.04.28-.07.36-.16.13-.14,0-.33-.05-.47-.1-.23-.19-.46-.29-.7-.5-1.2-1-2.39-1.5-3.59-.04-.1.03-.24.13-.29.28-.14.66-.36.65-.71,0-.19-.11-.39-.15-.58-.04-.18-.06-.35-.07-.53-.02-.31,0-.64.1-.94.05-.14.11-.29.19-.42.1-.15.27-.27.36-.41.06-.11.19-.14.31-.12.33.05.66.11.98.16.16.03.28.03.37.18.1.15.16.34.24.5.05.09.13.19.17.29.12.14.2.31.31.45.14.18.26.36.38.54.31.48.58.99.81,1.51.05.11-.04.23-.13.29-.16.11-.07.22-.02.37.05.16.09.31.12.47.06.31.08.62.07.94-.03.49-.04.98-.05,1.48-.02,1.16-.02,2.31.03,3.47.05,1.1.13,2.17.48,3.23.32.99.82,1.93,1.47,2.77,1.28,1.66,3.25,2.92,5.4,3.3.53.09,1.06.09,1.6.09h5.5s.1-.05.15-.05h9.22c.26,0,.66-.09.84.13.19.23.33.5.49.74.05.08.12.16.16.24.11.23-.07.65-.11.9-.11.71-.14,1.43-.1,2.14.04.72.16,1.48.46,2.15.12.26.27.54.51.71.04.03.09.05.14.07-.42-.36-.62-.93-.75-1.45-.25-1.01-.36-2.04-.28-3.08.02-.28.48-.38.54-.07.18.91.52,1.79,1.02,2.59.23.36.49.71.83.99.23.19.57.43.87.24.13-.08.3-.02.38.09.87,1.31,1.72,2.63,2.61,3.92.99,1.43,2.6,2.47,4.4,2.71.33.04.67.05,1,.05.28,0,.58.03.85-.05.73-.19,1.09-1.02.92-1.69-.12-.45-.49-.79-.79-1.14-.52-.6-1.04-1.2-1.57-1.8-1.47-1.7-2.95-3.39-4.42-5.09-.62-.71-1.24-1.42-1.85-2.13-.21-.24-.42-.48-.63-.72-.1-.12-.23-.24-.32-.36-.07,0-.15,0-.22,0-.18-.01-.25-.12-.34-.25-.15-.22-.3-.44-.45-.66-.44-.62-.89-1.23-1.35-1.84-1.33-1.76-2.72-3.49-4.15-5.18-.93-1.1-1.88-2.18-2.86-3.25-.07-.08-.12-.22-.04-.32,1.11-1.39,2.09-2.87,3.01-4.37.17-.28.54-.07.51.2,0,.03-.01.07-.02.1.19-.03.4.11.33.32-.44,1.21-.88,2.42-1.38,3.61,1.62-.83,3.14-1.86,4.57-2.93,2.23-1.68,4.28-3.62,5.94-5.81,1.84-2.42,3.06-5.19,4.33-7.91.62-1.34,1.25-2.68,1.78-4.05.05-.14.1-.27.15-.41-1.75.69-3.5,1.38-5.25,2.07-.28.11-.57.22-.85.33-.21.08-.38-.15-.34-.32.59-2.53,1.07-5.09,1.49-7.65.11-.7.25-1.37.29-2.07-1.55,1.14-3.11,2.29-4.66,3.43-.82.6-1.64,1.21-2.46,1.81-2.05,1.51-4.1,3.02-6.16,4.53l-6.4,4.71c-.67.49-1.34.98-2,1.48-.54.4-1.08.79-1.56,1.26-.45.43-.85.9-1.2,1.41-.09.13-.32.19-.43.05-.44-.51-.86-1.03-1.28-1.56-.2-.25-.39-.51-.58-.77-.15-.21-.27-.42-.4-.64-.54-.87-1.33-1.58-2.29-2.02-2.04-.92-4.44-.26-5.83,1.37-.93,1.09-1.36,2.48-1.28,3.87,0,.12-.09.21-.2.25-.74.29-1.49.58-2.23.88.28.05.56.09.83.14.22.04.24.3.12.44-.45.52-.53,1.24-.44,1.89.02.14.05.29.09.43.03.12.11.27.11.39,0,.29-.35.48-.58.61-.17.09-.34,0-.41-.16-.06-.15-.12-.43-.33-.45-.09,0-.18.04-.26.07-.31.12-.62.23-.93.35-.9.34-1.8.67-2.69,1.01-.21.08-.42.16-.63.24-.24.12-.18.29-.1.48Z"/>
    <path class="st1" d="M15.29,21.05c1.13-.02,1.51-1.49.7-2.13-.4-.32-.97-.36-1.38-.03-.38.3-.54.81-.43,1.26.12.49.55.89,1.1.9.36,0,.36.53,0,.52-.72-.01-1.32-.46-1.58-1.09s-.09-1.37.39-1.86c.51-.51,1.34-.64,1.98-.28.71.4,1.03,1.2.84,1.95s-.85,1.27-1.64,1.28c-.36,0-.36-.52,0-.52Z"/>
    <g>
      <path class="st1" d="M10.16,26.7s0,0,0,0c0,0,0,0-.01,0,0,0,0,0,0,0Z"/>
      <path class="st1" d="M8.7,26.99c-.04-.54.38-1.07.95-1.16.38-.06.75.04,1.04.29.12.1.1.34-.06.41-.11.05-.22.09-.33.13-.04.02-.09.03-.13.04,0,0,0,0,0,0,0,0,0,0,0,0,0,0,0,0,0,0,0,0,0,0,0,0,0,0,0,0,0,0,0,0,0,0,0,0,0,0,0,0,0,0,0,0,0,0,0,0,0,0,0,0,0,0,0,0,0,0,0,0,0,0,0,0,0,0,0,0,0,0,0,0,0,0,0,0,0,0,0,0,0,0,0,0,0,0,0,0,0,0,0,0,0,0,0,0,0,0,0,0,0,.01,0,0,0,0,0,0,0,0,0-.01,0-.02.06-.02.14-.04.2-.06.1-.03.19-.07.28-.1.08-.04.16-.05.25-.01.07.03.15.09.16.17.06.35-.03.69-.29.96-.23.24-.57.37-.9.36-.02,0-.04,0-.06,0-.58-.05-1.04-.48-1.09-1.04ZM10.15,26.7s0,0,0,0c0,0,0-.01,0-.01,0,0,0,0,0,.01,0,0,0,0,0,0ZM10.15,26.71s0,0,0,0c0,0,0,0,0,0,0,0,0,0,0,0,0,0,0,0,0,0,0,0,0,0,0,0,0,0,0,0,0,0ZM10.16,26.7s0,0,0,0c0,0,0,0,0,0,0,0,0,0,0,0ZM10.15,26.71s0,0,0,0c0,0,0,0,0,0,0,0,0,0,0,0ZM9.25,27s.02.09.04.14c0,0,0,0,0,0,0,.01.01.02.02.03.01.03.03.05.05.08,0,0,.01.02.02.03,0,0,0,0,0,0,.02.02.04.04.07.06,0,0,.09.06.04.03.03.02.05.03.08.05.02.01.05.02.07.03,0,0,.06.02.06.02.03,0,.05.01.08.02,0,0,.06,0,.07,0,.03,0,.07,0,.1,0,0,0,0,0,.01,0,0,0,.02,0,.02,0,.03,0,.06-.01.08-.02,0,0,.05-.02.06-.02.04-.02.09-.04.13-.07,0,0,0,0,.01,0,0,0,0,0,0,0,.02-.02.05-.04.07-.06,0,0,.03-.03.04-.04,0-.01.03-.04.03-.05.01-.02.02-.03.03-.05-.1.03-.2.07-.31.07-.23,0-.42-.14-.5-.34-.06-.17-.04-.37.07-.51.02-.03.05-.05.07-.08,0,0-.01,0-.02,0-.03,0-.06.01-.09.02-.01,0-.02,0-.03.01,0,0,0,0-.01,0-.03.01-.06.03-.08.04-.01,0-.03.02-.04.03,0,0-.04.04-.05.04-.02.02-.04.04-.06.06,0,0,0,0,0,0,0,.01-.02.02-.02.03-.02.03-.03.05-.05.08,0,0,0,.02-.01.02,0,0,0,0,0,.02,0,.03-.02.06-.03.09,0,.01,0,.03,0,.04,0,0,0,0,0,0,0,.03,0,.06,0,.1,0,0,0,.05,0,.06Z"/>
      <polygon class="st1" points="10.15 26.71 10.15 26.71 10.15 26.71 10.15 26.71"/>
      <polygon class="st1" points="10.15 26.71 10.15 26.72 10.15 26.72 10.15 26.71"/>
    </g>
  </g>
  <path class="st0" d="M41.37,44.36c-.14.03-.32.17-.44.33-.41.56-.37,1.35-.29,1.98.1.8.33,1.58.59,2.33.06.16-.21.23-.27.07-.4-1.14-.79-2.43-.6-3.65.07-.46.26-.95.69-1.22.07-.04.16-.09.24-.11.17-.04.25.22.07.25h0Z"/>
</svg>