<?xml version="1.0" encoding="UTF-8"?>
<svg id="Capa_1" xmlns="http://www.w3.org/2000/svg" version="1.1" viewBox="0 0 139.6 116">
  <!-- Generator: Adobe Illustrator 29.2.1, SVG Export Plug-In . SVG Version: 2.1.0 Build 116)  -->
  <defs>
    <style>
      .st0, .st1 {
        fill: #fff;
      }

      .st2 {
        fill: #e84e1c;
      }

      .st3 {
        fill: none;
      }

      .st4 {
        fill: #ae2d17;
      }

      .st1 {
        stroke: #fff;
        stroke-miterlimit: 10;
        stroke-width: 2px;
      }

      .st5 {
        fill: #026634;
      }
    </style>
  </defs>
  <path class="st0" d="M137.4,39.8c-1.5-4.4-4.7-8-8.8-10-5.1-2.5-11.1-2.4-16,.3l-1.6.9c-2.5-2.3-5.3-4.2-8.4-5.7-3.3-1.6-6.7-2.7-10.2-3.2l-.3-1.7c-.8-5.7-4.4-10.6-9.6-13.1-4.2-2-8.9-2.3-13.3-.8-4.4,1.5-8,4.7-10,8.8-2.5,5.2-2.3,11.3.5,16.3l.9,1.5c-2.3,2.5-4.3,5.4-5.9,8.6-3.4,7-4.5,14.9-3,22.5l-2.9,1c-1.7.6-3.1,1.8-3.9,3.5-.8,1.7-.9,3.5-.3,5.3.6,1.7,1.8,3.1,3.5,3.9,1.7.8,3.5.9,5.3.3l3.6-1.2c3.5,5.4,8.4,9.7,14.2,12.6,6,3,12.7,4.1,19.3,3.5l1.4,4.1c.6,1.7,1.8,3.1,3.5,3.9,1,.5,2,.7,3,.7s1.5-.1,2.2-.4c3.6-1.2,5.5-5.2,4.3-8.7l-1.2-3.6c6.6-3.5,12.1-9.1,15.4-15.9,1.6-3.3,2.7-6.7,3.2-10.2l1.8-.3c5.5-1,10.2-4.5,12.7-9.5,2-4.2,2.3-8.9.8-13.3Z"/>
  <g>
    <path class="st0" d="M100.6,26.7c-16.7-8.2-37-1.2-45.2,15.5-3.6,7.4-4.3,15.5-2.4,23l-4.6,1.6c-2.5.9-3.9,3.7-3,6.2.4,1.2,1.3,2.2,2.5,2.8s2.5.7,3.7.2l5.1-1.8c3.2,5.5,8.1,10.2,14.3,13.2,6.4,3.1,13.3,4,19.8,3.1l1.9,5.6c.4,1.2,1.3,2.2,2.5,2.8s2.5.7,3.7.2c2.5-.9,3.9-3.7,3-6.2l-1.8-5.3c6.8-3.2,12.5-8.5,16-15.7,8.2-16.7,1.2-37-15.5-45.2Z"/>
    <path class="st0" d="M63.3,30.7c6.6-5.7,15.1-8.6,23.8-8.2h2.3c0,0-.3-2.2-.3-2.2-.7-5-3.9-9.4-8.5-11.6-7.7-3.8-17-.6-20.7,7.1s-2.1,10,.5,14.5l1.2,2,1.8-1.5Z"/>
    <path class="st0" d="M126.7,31.2c-4.5-2.2-9.8-2.1-14.2.3l-2.1,1.1,1.6,1.8c5.7,6.6,8.7,15.1,8.4,23.9v2.4c0,0,2.3-.4,2.3-.4,4.9-.9,9-4,11.2-8.4,3.8-7.7.6-17-7.1-20.7Z"/>
  </g>
  <g>
    <path class="st2" d="M71.7,85.7c-15.8-7.7-22.3-26.9-14.6-42.6,7.7-15.8,26.9-22.3,42.6-14.6,15.8,7.7,22.3,26.9,14.6,42.6-7.7,15.8-26.9,22.3-42.6,14.6ZM97.2,33.7c-12.9-6.3-28.5-1-34.7,11.9-6.3,12.9-1,28.5,11.9,34.7,12.9,6.3,28.5,1,34.7-11.9,6.3-12.9,1-28.5-11.9-34.7Z"/>
    <path class="st2" d="M48.6,74c-.7-.3-1.2-.9-1.5-1.7-.5-1.5.3-3.2,1.8-3.7l9.2-3.1c1.5-.5,3.2.3,3.7,1.8.5,1.5-.3,3.2-1.8,3.7l-9.2,3.1c-.8.3-1.6.2-2.3-.1Z"/>
    <path class="st2" d="M96,97.2c-.7-.3-1.2-.9-1.5-1.7l-3.1-9.2c-.5-1.5.3-3.2,1.8-3.7,1.5-.5,3.2.3,3.7,1.8l3.1,9.2c.5,1.5-.3,3.2-1.8,3.7-.8.3-1.6.2-2.3-.1Z"/>
    <polygon class="st5" points="82.5 64.3 89.2 35.4 90 35.5 86.2 64.9 82.5 64.3"/>
    <polygon class="st5" points="83.9 59.3 92.7 42.5 93.2 42.7 86.1 60.3 83.9 59.3"/>
    <circle class="st5" cx="85.7" cy="57.1" r="3.5"/>
    <path class="st2" d="M87.2,20.5c-9.2-.4-18.2,2.8-25.1,8.7-2.1-3.8-2.5-8.5-.4-12.7,3.3-6.7,11.4-9.5,18.1-6.2s6.8,5.9,7.4,10.2Z"/>
    <path class="st2" d="M132.1,51.1c-2,4-5.7,6.7-9.8,7.4.3-9.2-2.8-18.2-8.8-25.2,3.7-2,8.3-2.3,12.4-.3,6.7,3.3,9.5,11.4,6.2,18.1Z"/>
  </g>
  <path class="st3" d="M55.9,48.8h0s0,0,0,0h0Z"/>
  <path class="st3" d="M44.3,38.9h1.7c-.6-.7-1.1-1.4-1.5-2l-.2,2Z"/>
  <polygon class="st3" points="33.2 49.4 33.3 49.1 33.1 49.4 33.2 49.4"/>
  <path class="st3" d="M55.4,33.2c1.6,1.8,2.6,3.6,3,5.4l1.3-5.5h-4.4Z"/>
  <polygon class="st3" points="50.2 73.1 51.3 69.6 50.7 69.6 50.2 73.1"/>
  <polygon class="st3" points="37.3 92.3 44.3 92.1 44.3 92.1 36.3 92.3 35.4 98.5 42.4 98.3 42.7 97.4 36.6 97.6 37.3 92.3"/>
  <path class="st3" d="M14.9,99.1h0c.5,0,.9,0,1.1-1.5l2.8-19c0-.3,0-.5,0-.6h-.9s-3.1,21.1-3.1,21.1Z"/>
  <polygon class="st3" points="37.3 92.3 36.6 97.6 42.7 97.4 44.3 92.1 37.3 92.3"/>
  <rect class="st1" x="43.5" y="92" width="0" height="5.5" transform="translate(-2.7 1.3) rotate(-1.6)"/>
  <polygon class="st3" points="39 81.2 47 80.9 46.3 85.6 49 77.2 39.5 77.5 39 81.2"/>
  <path class="st0" d="M75.1,96.5l4.6-31.3-13,.3-1.2,8.2-.2-8.1h-1.7s1.1-4.3,1.1-4.3h-.9s1.1-4.7,1.1-4.7h.9s2-8.1,2-8.1h-1.5s4.7-19.3,4.7-19.3h4.5c0-.1,2.4-9.9,2.4-9.9l-19.5.5v.6c-1.4-.6-2.8-.9-4.6-.8-3.5,0-6.5,1.6-8.5,4.1l.3-3.5-11.1.3-9.4,23.1h-2.3c0,0,5.6-22.9,5.6-22.9l-10.5.3-8,32.8h2.3c0,0-3.3,13.5-3.3,13.5h-1.5S1.3,110.6,1.3,110.6l13.1-.3c3,0,5.6-.8,7.8-2.3l-.3,2.1,28.8-.8,2.1-7.2h.5s0,7.1,0,7.1l29.6-.8,1.8-12.2-9.6.3ZM18.8,78c0,.1,0,.3,0,.6l-2.8,19c-.2,1.5-.5,1.5-1.1,1.5h0l3.1-21h.9ZM39,81.1l.4-2.6,8.2-.2-.8,2.6-7.8.2ZM42.9,93.2l-1.3,4.2h-5.1c0,.1.6-4,.6-4l5.8-.2ZM51.1,66.9v-.8c.1,0,.3,0,.3,0l-.3.8ZM55.9,48.8s0,0,0,0h0c0,0,0,0,0,0ZM59.8,33.1l-1.3,5.5c-.4-1.8-1.4-3.6-3-5.4h4.4ZM44.4,36.9c.4.7.9,1.3,1.5,2h-1.7s.2-2,.2-2ZM33.3,49.1v.3s-.1,0-.1,0v-.3ZM28.2,66.6l-.4,2.8c-1.6-1.5-3.9-2.4-6.6-2.6l7-.2Z"/>
  <g>
    <path class="st4" d="M20.3,21.9h4.3c0-.1-5.6,22.9-5.6,22.9l7.1-.2-.9,3.8-11.4.3,6.5-26.8Z"/>
    <path class="st4" d="M36.5,21.5l5.8-.2-2,26.7h-4.3c0,.1.5-5.2.5-5.2h0c0,0-4.9.2-4.9.2l-2.1,5.3h-4c0,.1,11-26.8,11-26.8ZM36.9,39.3l1.3-13.2h0s-5.1,13.3-5.1,13.3h3.9Z"/>
    <path class="st4" d="M42.3,41.7l.4-1.5h4.1c0-.1-.4,1.7-.4,1.7-.5,1.9.2,2.6,1.6,2.5,1.4,0,2.4-.7,2.9-2.7.5-2.2,0-3.6-2.2-6-2.9-3-3.5-5.2-2.8-8.2,1-4.2,3.9-6.7,8.1-6.8,4.2-.1,5.7,2.3,4.6,6.6l-.3,1.1h-4.1c0,.1.3-1.3.3-1.3.5-1.9-.1-2.6-1.5-2.6s-2.3.8-2.8,2.6c-.5,2,0,3.3,2.3,5.7,2.9,3,3.5,5.1,2.7,8.5-1.1,4.4-3.9,6.9-8.2,7-4.2.1-5.8-2.3-4.7-6.6Z"/>
    <path class="st4" d="M64.3,24.6h-4.5c0,.1.9-3.7.9-3.7l13.4-.3-.9,3.8h-4.5c0,.1-5.6,23.1-5.6,23.1h-4.3c0,.1,5.6-22.9,5.6-22.9Z"/>
    <path class="st4" d="M15.5,51h3.4c0,0-1.1,10.5-1.1,10.5h0s4.1-10.7,4.1-10.7h3.4c0,0-3.6,14.8-3.6,14.8h-2.3c0,0,2.7-11.2,2.7-11.2h0s-4.5,11.3-4.5,11.3h-2c0,0,1-11.2,1-11.2h0s-2.7,11.3-2.7,11.3h-2.1c0,0,3.6-14.8,3.6-14.8Z"/>
    <path class="st4" d="M27.3,50.7h2.4c0,0-3.6,14.8-3.6,14.8h-2.4c0,0,3.6-14.8,3.6-14.8Z"/>
    <path class="st4" d="M31.4,50.6h3c0,0,.2,8.8.2,8.8h0s2.2-8.9,2.2-8.9h2.1c0,0-3.6,14.8-3.6,14.8h-2.5c0,0-.2-10.7-.2-10.7h0s-2.6,10.9-2.6,10.9h-2.1c0,0,3.6-14.8,3.6-14.8Z"/>
    <path class="st4" d="M37.9,61.7l2.8-11.4h2.4c0,0-2.8,11.5-2.8,11.5-.3,1.1.1,1.4.9,1.4.8,0,1.3-.4,1.6-1.5l2.8-11.5h2.3c0,0-2.8,11.3-2.8,11.3-.6,2.4-2.1,3.8-4.5,3.8-2.4,0-3.2-1.3-2.7-3.7Z"/>
    <path class="st4" d="M50.9,52.2h-2.5c0,0,.5-2.1.5-2.1l7.4-.2-.5,2.1h-2.5c0,0-3.1,12.8-3.1,12.8h-2.4c0,0,3.1-12.7,3.1-12.7Z"/>
    <path class="st4" d="M57.4,49.9l6.5-.2-.5,2.1h-4.1c0,.1-1,4-1,4h3.3c0,0-.5,2-.5,2h-3.3c0,0-1.1,4.7-1.1,4.7h4.1c0-.1-.5,2-.5,2l-6.5.2,3.6-14.9Z"/>
  </g>
  <g>
    <path class="st2" d="M11.7,70.5l8.9-.2c5.9-.2,8.3,3,7.4,8.8l-2.7,18.4c-.9,5.8-4.2,9.1-10.1,9.2l-8.9.2,5.4-36.5ZM15.9,101.6c1.9,0,3.1-1,3.5-3.6l2.8-19c.4-2.6-.6-3.5-2.5-3.5h-3c0,0-3.8,26.1-3.8,26.1h3Z"/>
    <path class="st2" d="M32.2,70l16-.4-.8,5.2-10.1.3-1.4,9.6,8-.2-.8,5.2-8,.2-1.6,11.2,10.1-.3-.8,5.2-16,.4,5.4-36.5Z"/>
    <path class="st2" d="M55,69.4l7.9-.2.7,36.3-5.9.2v-7.2s0,.1,0,.1l-6.7.2-2.1,7.2h-5.4c0,.1,11.4-36.5,11.4-36.5ZM57.8,93.6v-18s0,0,0,0l-5.2,18.1h5.3Z"/>
    <path class="st2" d="M70.7,69l5.9-.2-4.6,31.3,9.6-.3-.8,5.2-15.5.4,5.4-36.5Z"/>
  </g>
</svg>