<svg version="1.2" xmlns="http://www.w3.org/2000/svg" viewBox="0 0 1224 1118" width="1224" height="1118">
	<title>LOGO OCEANIX azul marino</title>
	<defs>
		<clipPath clipPathUnits="userSpaceOnUse" id="cp1">
			<path d="m199 439.34c-2.43 15.7 1.07 30.43 8.32 44.35 2.8 5.39 6.14 10.45 11.46 15.16 0.98-14.34 7.01-25.48 18.06-34.27-16.97-2.22-27.77-10.65-26.86-20.65 0.43 0.32 0.78 0.58 1.13 0.85 11.35 9.16 23.83 15.1 38.92 14.03 4.35-0.3 8.76-0.34 13.07 0.6 5.73 1.25 10.43 4.01 13.4 9.67-3.98-1.28-10.29-5.04-14.45-2.56-10.02 6-18.16 14.19-21.1 26.22-1.32 5.4-1.82 10.89-2.15 16.4-0.33 5.76-2.03 11.12-5.24 15.85-8.99 13.21-21.93 21.36-36.27 27.52-8.57 3.68-17.09 7.41-25.13 12.16-12.28 7.27-23.37 14.45-28.72 28.03-4.33 10.91-2.29 20.89-1.6 23.59 0 0 0.23-44.91 68.72-52.45 11.52-1.45 43.42-7.46 45.77-34.44 0.7-8.09-1.56-15.98-2.96-23.9-3.82-21.53 13.9-31.33 29.7-33.7 1.06-0.16 1.9-0.03 3.66 0.55-2.52-2.05-4.84-4.58-6.99-7.47-4.12-6.98-9.7-12.19-17.59-14.7-6.61-2.1-13.57-2.55-20.16-4.59-11.08-3.44-20.6-6.88-27.52-20.2-4.61 12.39 9.03 24.04 11.61 27.18-2.98-1.62-12.66-10.81-14.29-13.53-4.68-7.74-1.45-22.65 6.14-27.8 0.26 14.47 10.8 21.14 18.68 24.87 7.07 3.34 14.68 4.47 22.22 6.08 10.47 2.25 19.47 7.24 25.19 16.65 2.48 4.1 5.17 7.73 8.95 10.71 3.4 2.69 5.74 6.3 7.48 11.09-7.39-2.72-14.24-2.48-21.12-1.76-10.95 1.15-17.9 8.02-19.06 18.89-0.24 2.26-0.15 4.61 0.11 6.88 0.99 8.9 3.15 17.7 1.97 26.76-0.05 0.38 0.24 0.82 0.35 1.19 1.58 0.13 2.17-1.03 2.94-1.79 3.99-3.84 7.19-8.37 10.78-12.56 12.28-14.32 26.74-25.26 45.59-29.34 32.07-7.5 51.12 11.03 52.59 12.46-0.79-7.61-5.32-23.34-8.43-30.19-11.79-25.88-37.52-74.25-104.14-85.69q-0.57-0.11-1.76-0.11c-9.82 0-49.32 6.46-61.27 53.96z"/>
		</clipPath>
		<clipPath clipPathUnits="userSpaceOnUse" id="cp2">
			<path d="m287.06 516.93c-9.61 9.75-17.24 21.25-27.57 30.4-11.77 10.44-24.83 18.13-40.29 21.55-10.54 2.33-21.37 3.23-31.7 6.62-13.13 4.3-24.4 11.1-32.63 22.54-17.14 24.08 0.78 44.04 7.61 47.5-0.03-0.81-2.43-26.32 14.76-42.74 10.31-8.85 22.78-13.5 35.66-16.62 26.56-6.43 48.42-20.07 66.11-40.77 9.36-10.94 18.99-21.63 31.71-28.96 12.4-7.15 25.52-10.19 39.76-7.56 8.43 1.56 19.08 7.01 25.89 12.55 0.44-9.23-3.72-23.89-37.22-27.68q-2.19-0.25-4.41-0.24c-17.13 0-35.16 10.72-47.68 23.41z"/>
		</clipPath>
		<clipPath clipPathUnits="userSpaceOnUse" id="cp3">
			<path d="m253.55 605.45c-32.3 37.6-59.83 30.53-73.3 23.48-5.42-2.85-8.58-5.69-8.83-5.62-4.47 8.76-5.68 21.96 5.49 29.21 3.32 2.15 7.19 3.31 11.13 3.58 13.93 0.95 28.31-4.47 41.57-10.48 14.2-6.41 25.64-16.56 36.04-27.93 40.98-56.79 88.68-49.33 100.88-42.28 2.55-6.47 3.68-10.43 3.68-10.43-6.28-2.88-18.14-8.98-34.48-8.98-20.89 0-49.09 9.99-82.18 49.45z"/>
		</clipPath>
		<clipPath clipPathUnits="userSpaceOnUse" id="cp4">
			<path d="m98.04 486.44c-1.09 18.02 8.02 30.59 24.08 38.84 9.45 4.86 33.85 8.13 35.08 8.5-1.23 0.37-48.17 0.67-54.25 32.45-2.64 13.77 9.38 31.95 10.5 32.07-0.52-2.53-0.91-28.28 19.48-44.04 13.99-10.86 29.97-17.18 47.23-20.77 10.11-2.11 20.29-4.06 30.02-7.73 1.61-0.61 3.42-0.98 4.72-2.5-1.32-0.56-2.24 0.09-3.21 0.36-4.34 1.23-8.75 2.18-13.24 2.17-18.6-0.03-36.99-1.58-54.76-7.6-15.93-5.39-28.46-16.02-36.6-31.19-2.71-5.05-3.89-10.79-4.67-16.4-2.17 4.37-4.08 11.18-4.38 15.84z"/>
		</clipPath>
		<clipPath clipPathUnits="userSpaceOnUse" id="cp5">
			<path d="m326.29 580.75c-5.03 1.01-9.91 2.72-14.48 5.08-11.6 5.98-20.91 14.32-29.94 24.24-7.36 8.08-14.22 16.61-22.37 23.93-27.41 25.85-54.81 25.96-57.62 27.09 1.16 1.48 17.99 3.31 22.21 3.65 10.42 0.82 19.4-1.17 28.91-6.52 5.88-3.31 10.92-7.61 15.75-12.23 7.92-7.59 14.19-16.6 21.52-24.7 18.18-20.08 40.52-33.73 69.26-30.92 0 0 2.92-5.42 3.56-7.04 0 0-7.88-4.1-21.74-4.1-4.42 0-9.46 0.41-15.06 1.52z"/>
		</clipPath>
		<clipPath clipPathUnits="userSpaceOnUse" id="cp6">
			<path d="m306.03 528.2c-9.08 6.58-16.49 15-23.58 23.64-16.45 20.08-37.32 33.1-62.34 39.7-9.33 2.47-18.63 5.14-27.42 9.25-2 0.93-4.07 1.84-5.71 3.68 0.58 0.36 0.84 0.63 1.14 0.7 1.12 0.28 2.24 0.57 3.38 0.7 13.02 1.58 25.74 0.18 37.98-4.55 19.88-7.66 33.64-14.92 46.84-31.79 9.25-11.84 23.15-26.74 36.19-34.39 11.65-6.83 24.19-9.89 37.73-7.96 8.94 1.28 18.48 5.75 25.31 11.86 0.83-6.25 0.32-10.01-1.96-12.57-3.72-4.17-16.39-10.2-32.01-10.2-11.07 0-23.65 3.04-35.55 11.93z"/>
		</clipPath>
		<clipPath clipPathUnits="userSpaceOnUse" id="cp7">
			<path d="m266.61 658.08q-0.04 0-0.08-0.01-0.12 0.19 0.08 0.01zm71.84-60.01c-17.02 3.48-29.98 13.58-41.23 26.1-9.14 10.18-28.89 32.35-30.61 33.91 25.18 1.88 70.15-27.85 88.2-59.65-0.37-0.48-4.77-0.86-9.16-0.86-2.73 0-5.46 0.14-7.2 0.5z"/>
		</clipPath>
		<clipPath clipPathUnits="userSpaceOnUse" id="cp8">
			<path d="m222.12 526.68c-9.28 6.21-19.9 8.67-30.56 11.18-10.82 2.56-21.8 4.58-32.05 9.25-13.71 6.23-25.12 14.89-31.71 28.81-7.71 16.25-11.05 32.92 8.37 50.01 0 0-7.69-23.64 9.14-46.6 8.46-11.69 19.91-19.57 32.61-25.87 9.06-4.5 18.71-7.76 27.43-12.92 6.5-3.85 12.79-8.01 18.74-14.08-1.34 0.14-1.73 0.06-1.97 0.22z"/>
		</clipPath>
		<clipPath clipPathUnits="userSpaceOnUse" id="cp9">
			<path d="m109.63 458.07c-2.08 9.52 1.46 18.53 6.94 26.76 10.02 15.04 23.97 24.56 41.27 29.3 12.29 3.36 24.89 4.42 37.56 4.87 2.29 0.08 4.6-0.02 6.9-0.14 2.13-0.12 4.24-0.38 6.37-0.57-12.46-0.8-23.82-4.89-34.9-9.8-13.33-5.91-25.76-13.35-36.02-23.89-10.19-10.47-17.13-22.51-16.93-37.67 0.04-3.05 0.35-6.1 0.55-9.15-4.72 6.2-10.12 12.95-11.74 20.29z"/>
		</clipPath>
		<clipPath clipPathUnits="userSpaceOnUse" id="cp10">
			<path d="m206.41 394.44c-20.88 10.3-32.18 33.5-27.28 56.23 4.3 19.98 15.68 35.8 29.7 50.01 2 2.02 3.91 4.24 6.57 5.53q0.27-0.27 0.54-0.55c-13.35-13.2-21.63-28.78-24.03-47.67-6.43-63.75 57.13-73.18 60.46-74.07-0.68-0.28-3.07-0.67-6.74-0.67-8.25 0-22.95 1.93-39.22 11.19z"/>
		</clipPath>
		<clipPath clipPathUnits="userSpaceOnUse" id="cp11">
			<path d="m137.54 420.76c-6.75 9.15-8.25 20.2-6.13 31.26 2.6 13.66 9.88 24.68 20.12 33.73 14.81 13.09 32.34 20.87 51.38 25.5 2.49 0.6 4.92 1.85 7.66 0.67q-2.42-0.87-4.83-1.73c-10.24-3.69-14.24-5.53-26.87-12.09-59.07-36.53-22.88-92.13-22.88-92.13-6.77 4.18-15.1 10.26-18.45 14.79z"/>
		</clipPath>
		<clipPath clipPathUnits="userSpaceOnUse" id="cp12">
			<path d="m175.79 395.16c-19.43 8.97-24.56 34.38-20.12 52.19 5.47 21.94 19.51 37.61 37.62 50.11 2.12 1.47 7.24 3.42 7.24 3.42 0 0-72.16-67.77-0.37-114.04 0 0-13.26 3.2-24.37 8.32z"/>
		</clipPath>
		<clipPath clipPathUnits="userSpaceOnUse" id="cp13">
			<path d="m312.66 542.44c-13.27 7.35-29.76 25.65-30.17 28.64 0 0 14.19-15.08 37.07-21.28 32.19-7.43 52.68 7.99 52.68 7.99 2.12-7.25 2.58-13.09 2.58-13.09-0.41-0.32-8.99-7.76-24.52-9.66q-3.72-0.46-7.43-0.46c-10.52 0-20.93 2.71-30.21 7.86z"/>
		</clipPath>
		<clipPath clipPathUnits="userSpaceOnUse" id="cp14">
			<path d="m239.06 605.54c-3.35 1.89-6.99 3.18-10.62 4.45-30.54 10.54-48.59-1.22-48.59-1.22-8.27 9.95-0.69 12.28 5.64 14.05 13.29 3.69 30.62 7.27 58.94-19.92-1.56 0.82-3.63 1.65-5.37 2.64z"/>
		</clipPath>
		<clipPath clipPathUnits="userSpaceOnUse" id="cp15">
			<path d="m250.6 465.94c-16.43 4.52-27.81 26.07-24.43 44.07 0 0 1.48 7.26 2.38 8.61l1.07-10.01c2.18-18.26 6.17-34.15 24.36-42.97-1.13 0.09-2.31 0.01-3.38 0.3z"/>
		</clipPath>
		<clipPath clipPathUnits="userSpaceOnUse" id="cp16">
			<path d="m94.66 551.24c0 0 10.1-17.88 30.12-18.34-20.13-1.36-32.66-15.93-32.66-15.93-0.52 8.44 0.16 24.55 2.54 34.27z"/>
		</clipPath>
		<clipPath clipPathUnits="userSpaceOnUse" id="cp17">
			<path d="m215.4 506.21c0.39 0.24 0.76 1.02 1.23 0.26 0.26-0.41-0.21-0.73-0.69-0.81q-0.27 0.28-0.54 0.55z"/>
		</clipPath>
	</defs>
	<style>
		.s0 { fill: #10497c } 
	</style>
	<g id="Layer 1">
		<g id="&lt;Group&gt;">
			<g id="&lt;Clip Group&gt;" clip-path="url(#cp1)">
				<path id="&lt;Path&gt;" class="s0" d="m374.6 385.4v230.9h-235.5v-230.9z"/>
				<path id="&lt;Path&gt;" class="s0" d="m199 439.3c-2.4 15.7 1.1 30.5 8.3 44.4 2.8 5.4 6.2 10.4 11.5 15.2 1-14.4 7-25.5 18-34.3-16.9-2.2-27.7-10.7-26.8-20.7 0.4 0.4 0.8 0.6 1.1 0.9 11.4 9.1 23.8 15.1 38.9 14 4.4-0.3 8.8-0.3 13.1 0.6 5.7 1.3 10.4 4 13.4 9.7-4-1.3-10.3-5.1-14.4-2.6-10.1 6-18.2 14.2-21.1 26.2-1.4 5.4-1.9 10.9-2.2 16.4-0.3 5.8-2 11.2-5.2 15.9-9 13.2-22 21.4-36.3 27.5-8.6 3.7-17.1 7.4-25.1 12.2-12.3 7.2-23.4 14.4-28.8 28-4.3 10.9-2.2 20.9-1.6 23.6 0 0 0.3-44.9 68.8-52.5 11.5-1.4 43.4-7.4 45.7-34.4 0.7-8.1-1.5-16-2.9-23.9-3.8-21.5 13.9-31.3 29.7-33.7 1-0.2 1.9 0 3.6 0.5-2.5-2-4.8-4.5-7-7.4-4.1-7-9.7-12.2-17.6-14.7-6.6-2.1-13.5-2.6-20.1-4.6-11.1-3.4-20.6-6.9-27.5-20.2-4.6 12.4 9 24 11.6 27.2-3-1.6-12.7-10.8-14.3-13.6-4.7-7.7-1.5-22.6 6.1-27.8 0.3 14.5 10.8 21.2 18.7 24.9 7.1 3.3 14.7 4.5 22.2 6.1 10.5 2.2 19.5 7.2 25.2 16.6 2.5 4.1 5.2 7.8 9 10.8 3.4 2.6 5.7 6.3 7.4 11-7.3-2.7-14.2-2.4-21.1-1.7-10.9 1.1-17.9 8-19 18.9-0.3 2.2-0.2 4.6 0.1 6.8 1 8.9 3.1 17.8 2 26.8-0.1 0.4 0.2 0.8 0.3 1.2 1.6 0.1 2.2-1 2.9-1.8 4-3.8 7.2-8.4 10.8-12.6 12.3-14.3 26.8-25.2 45.6-29.3 32.1-7.5 51.1 11 52.6 12.5-0.8-7.6-5.3-23.4-8.4-30.2-11.8-25.9-37.5-74.3-104.2-85.7q-0.5-0.1-1.7-0.1c-9.9 0-49.3 6.4-61.3 53.9z"/>
			</g>
			<g id="&lt;Clip Group&gt;" clip-path="url(#cp2)">
				<path id="&lt;Path&gt;" class="s0" d="m376.8 493.5v152h-239.1v-152z"/>
				<path id="&lt;Path&gt;" class="s0" d="m287.1 516.9c-9.7 9.8-17.3 21.3-27.6 30.4-11.8 10.5-24.8 18.2-40.3 21.6-10.5 2.3-21.4 3.2-31.7 6.6-13.1 4.3-24.4 11.1-32.6 22.5-17.2 24.1 0.8 44.1 7.6 47.5 0-0.8-2.5-26.3 14.7-42.7 10.4-8.8 22.8-13.5 35.7-16.6 26.6-6.5 48.4-20.1 66.1-40.8 9.4-10.9 19-21.6 31.7-28.9 12.4-7.2 25.5-10.2 39.8-7.6 8.4 1.5 19.1 7 25.9 12.5 0.4-9.2-3.7-23.9-37.2-27.6q-2.2-0.3-4.5-0.3c-17.1 0-35.1 10.7-47.6 23.4z"/>
			</g>
			<g id="&lt;Clip Group&gt;" clip-path="url(#cp3)">
				<path id="&lt;Path&gt;" class="s0" d="m370.2 556v101h-204.5v-101z"/>
				<path id="&lt;Path&gt;" class="s0" d="m253.5 605.4c-32.3 37.6-59.8 30.6-73.3 23.5-5.4-2.8-8.5-5.7-8.8-5.6-4.5 8.8-5.7 22 5.5 29.2 3.3 2.2 7.2 3.3 11.1 3.6 14 0.9 28.4-4.5 41.6-10.5 14.2-6.4 25.6-16.5 36-27.9 41-56.8 88.7-49.3 100.9-42.3 2.6-6.5 3.7-10.4 3.7-10.4-6.3-2.9-18.1-9-34.5-9-20.9 0-49.1 10-82.2 49.4z"/>
			</g>
			<g id="&lt;Clip Group&gt;" clip-path="url(#cp4)">
				<path id="&lt;Path&gt;" class="s0" d="m214.9 470.6v127.7h-118v-127.7z"/>
				<path id="&lt;Path&gt;" class="s0" d="m98 486.4c-1.1 18.1 8.1 30.6 24.1 38.9 9.5 4.8 33.9 8.1 35.1 8.5-1.2 0.3-48.2 0.7-54.2 32.4-2.7 13.8 9.3 32 10.4 32.1-0.5-2.5-0.9-28.3 19.5-44 14-10.9 30-17.2 47.3-20.8 10.1-2.1 20.3-4.1 30-7.7 1.6-0.6 3.4-1 4.7-2.5-1.3-0.6-2.2 0-3.2 0.3-4.3 1.2-8.8 2.2-13.3 2.2-18.5 0-36.9-1.6-54.7-7.6-15.9-5.4-28.5-16-36.6-31.2-2.7-5.1-3.9-10.8-4.7-16.4-2.1 4.4-4.1 11.2-4.4 15.8z"/>
			</g>
			<g id="&lt;Clip Group&gt;" clip-path="url(#cp5)">
				<path id="&lt;Path&gt;" class="s0" d="m363.1 579.2v86.4h-161.2v-86.4z"/>
				<path id="&lt;Path&gt;" class="s0" d="m326.3 580.8c-5 1-9.9 2.7-14.5 5-11.6 6-20.9 14.4-29.9 24.3-7.4 8.1-14.2 16.6-22.4 23.9-27.4 25.8-54.8 26-57.6 27.1 1.1 1.5 18 3.3 22.2 3.6 10.4 0.9 19.4-1.1 28.9-6.5 5.9-3.3 10.9-7.6 15.7-12.2 8-7.6 14.2-16.6 21.6-24.7 18.1-20.1 40.5-33.7 69.2-30.9 0 0 3-5.5 3.6-7.1 0 0-7.9-4.1-21.7-4.1-4.5 0-9.5 0.4-15.1 1.6z"/>
			</g>
			<g id="&lt;Clip Group&gt;" clip-path="url(#cp6)">
				<path id="&lt;Path&gt;" class="s0" d="m376.4 516.3v91.1h-189.4v-91.1z"/>
				<path id="&lt;Path&gt;" class="s0" d="m306 528.2c-9.1 6.6-16.5 15-23.6 23.6-16.4 20.1-37.3 33.1-62.3 39.7-9.3 2.5-18.6 5.2-27.4 9.3-2 0.9-4.1 1.8-5.7 3.7 0.6 0.3 0.8 0.6 1.1 0.7 1.1 0.2 2.3 0.5 3.4 0.7 13 1.5 25.7 0.2 38-4.6 19.9-7.6 33.6-14.9 46.8-31.8 9.3-11.8 23.2-26.7 36.2-34.4 11.7-6.8 24.2-9.9 37.7-7.9 9 1.3 18.5 5.7 25.4 11.8 0.8-6.2 0.3-10-2-12.5-3.7-4.2-16.4-10.2-32-10.2-11.1 0-23.7 3-35.6 11.9z"/>
			</g>
			<g id="&lt;Clip Group&gt;" clip-path="url(#cp7)">
				<path id="&lt;Path&gt;" class="s0" d="m354.8 597.6v62.4h-88.3v-62.4z"/>
			</g>
			<g id="&lt;Clip Group&gt;" clip-path="url(#cp8)">
				<path id="&lt;Path&gt;" class="s0" d="m224.1 526.5v99.4h-107.4v-99.4z"/>
				<path id="&lt;Path&gt;" class="s0" d="m222.1 526.7c-9.3 6.2-19.9 8.6-30.5 11.2-10.9 2.5-21.8 4.5-32.1 9.2-13.7 6.2-25.1 14.9-31.7 28.8-7.7 16.3-11.1 32.9 8.4 50 0 0-7.7-23.6 9.1-46.6 8.5-11.7 19.9-19.5 32.6-25.8 9.1-4.5 18.7-7.8 27.5-13 6.5-3.8 12.7-8 18.7-14-1.3 0.1-1.7 0-2 0.2z"/>
			</g>
			<g id="&lt;Clip Group&gt;" clip-path="url(#cp9)">
				<path id="&lt;Path&gt;" class="s0" d="m208.7 437.8v81.3h-101.2v-81.3z"/>
				<path id="&lt;Path&gt;" class="s0" d="m109.6 458.1c-2.1 9.5 1.5 18.5 7 26.7 10 15.1 23.9 24.6 41.2 29.3 12.3 3.4 24.9 4.4 37.6 4.9 2.3 0.1 4.6 0 6.9-0.1 2.1-0.2 4.2-0.4 6.4-0.6-12.5-0.8-23.8-4.9-34.9-9.8-13.4-5.9-25.8-13.4-36-23.9-10.2-10.5-17.2-22.5-17-37.7 0.1-3 0.4-6.1 0.6-9.1-4.7 6.2-10.2 12.9-11.8 20.3z"/>
			</g>
			<g id="&lt;Clip Group&gt;" clip-path="url(#cp10)">
				<path id="&lt;Path&gt;" class="s0" d="m252.4 383.3v122.9h-78.2v-122.9z"/>
				<path id="&lt;Path&gt;" class="s0" d="m206.4 394.4c-20.9 10.3-32.2 33.5-27.3 56.3 4.3 19.9 15.7 35.8 29.7 50 2 2 3.9 4.2 6.6 5.5q0.3-0.3 0.5-0.5c-13.3-13.2-21.6-28.8-24-47.7-6.4-63.8 57.1-73.2 60.5-74.1-0.7-0.3-3.1-0.6-6.8-0.6-8.2 0-22.9 1.9-39.2 11.1z"/>
			</g>
			<g id="&lt;Clip Group&gt;" clip-path="url(#cp11)">
				<path id="&lt;Path&gt;" class="s0" d="m210.6 406v107.1h-90.8v-107.1z"/>
				<path id="&lt;Path&gt;" class="s0" d="m137.5 420.8c-6.7 9.1-8.2 20.2-6.1 31.2 2.6 13.7 9.9 24.7 20.1 33.8 14.8 13 32.4 20.8 51.4 25.4 2.5 0.7 4.9 1.9 7.7 0.7q-2.4-0.8-4.9-1.7c-10.2-3.7-14.2-5.5-26.8-12.1-59.1-36.5-22.9-92.1-22.9-92.1-6.8 4.1-15.1 10.2-18.5 14.8z"/>
			</g>
			<g id="&lt;Clip Group&gt;" clip-path="url(#cp12)">
				<path id="&lt;Path&gt;" class="s0" d="m200.5 386.8v114.1h-72.1v-114.1z"/>
				<path id="&lt;Path&gt;" class="s0" d="m175.8 395.2c-19.4 8.9-24.6 34.3-20.1 52.1 5.4 22 19.5 37.7 37.6 50.2 2.1 1.4 7.2 3.4 7.2 3.4 0 0-72.1-67.8-0.3-114.1 0 0-13.3 3.2-24.4 8.4z"/>
			</g>
			<g id="&lt;Clip Group&gt;" clip-path="url(#cp13)">
				<path id="&lt;Path&gt;" class="s0" d="m374.8 534.6v36.5h-92.3v-36.5z"/>
				<path id="&lt;Path&gt;" class="s0" d="m312.7 542.4c-13.3 7.4-29.8 25.7-30.2 28.7 0 0 14.2-15.1 37.1-21.3 32.1-7.4 52.6 8 52.6 8 2.2-7.3 2.6-13.1 2.6-13.1-0.4-0.3-9-7.8-24.5-9.7q-3.7-0.4-7.4-0.4c-10.6 0-21 2.7-30.2 7.8z"/>
			</g>
			<g id="&lt;Clip Group&gt;" clip-path="url(#cp14)">
				<path id="&lt;Path&gt;" class="s0" d="m244.4 602.9v27.2h-72.8v-27.2z"/>
				<path id="&lt;Path&gt;" class="s0" d="m239.1 605.5c-3.4 1.9-7 3.2-10.7 4.5-30.5 10.5-48.5-1.2-48.5-1.2-8.3 9.9-0.7 12.2 5.6 14 13.3 3.7 30.6 7.3 58.9-19.9-1.5 0.8-3.6 1.7-5.3 2.6z"/>
			</g>
			<g id="&lt;Clip Group&gt;" clip-path="url(#cp15)">
				<path id="&lt;Path&gt;" class="s0" d="m254 465.6v53h-31.2v-53z"/>
				<path id="&lt;Path&gt;" class="s0" d="m250.6 465.9c-16.4 4.6-27.8 26.1-24.4 44.1 0 0 1.4 7.3 2.3 8.6l1.1-10c2.2-18.2 6.2-34.1 24.4-43-1.2 0.1-2.3 0-3.4 0.3z"/>
			</g>
			<g id="&lt;Clip Group&gt;" clip-path="url(#cp16)">
				<path id="&lt;Path&gt;" class="s0" d="m124.8 517v34.2h-33.2v-34.2z"/>
				<path id="&lt;Path&gt;" class="s0" d="m94.7 551.2c0 0 10.1-17.8 30.1-18.3-20.2-1.4-32.7-15.9-32.7-15.9-0.5 8.4 0.2 24.5 2.6 34.2z"/>
			</g>
			<g id="&lt;Clip Group&gt;" clip-path="url(#cp17)">
				<path id="&lt;Path&gt;" class="s0" d="m216.9 505.7v1.5h-1.5v-1.5z"/>
				<path id="&lt;Path&gt;" class="s0" d="m215.4 506.2c0.4 0.2 0.8 1 1.2 0.3 0.3-0.4-0.2-0.8-0.7-0.8q-0.2 0.2-0.5 0.5z"/>
			</g>
			<path id="&lt;Compound Path&gt;" fill-rule="evenodd" class="s0" d="m456.9 520.9q-14.3 0.1-25.8-6.1-11.5-6.2-18-17-6.5-10.9-6.5-24.5 0-13.5 6.5-24.4 6.5-10.8 18-17 11.5-6.2 25.8-6.2 14.4 0 25.8 6.2 11.5 6.2 18.1 17 6.5 10.9 6.5 24.4 0 13.6-6.5 24.5-6.6 10.8-18.1 17-11.4 6.2-25.8 6.1zm0-18.1q8.2 0 14.8-3.7 6.6-3.8 10.3-10.5 3.7-6.7 3.7-15.3 0-8.6-3.7-15.2-3.7-6.7-10.3-10.4-6.6-3.8-14.8-3.8-8.1 0-14.7 3.8-6.6 3.7-10.3 10.4-3.7 6.6-3.7 15.2 0 8.6 3.7 15.3 3.7 6.7 10.3 10.5 6.6 3.7 14.7 3.7z"/>
			<path id="&lt;Path&gt;" class="s0" d="m590.3 520.9q-14.1 0.1-25.4-6-11.4-6.2-17.9-17-6.5-10.9-6.5-24.6 0-13.6 6.5-24.5 6.5-10.9 17.9-17 11.3-6.1 25.6-6.1 11.9 0 21.6 4.2 9.7 4.3 16.3 12.1l-13.7 12.7q-9.4-10.8-23.2-10.8-8.6 0-15.3 3.8-6.7 3.7-10.4 10.4-3.7 6.6-3.7 15.2 0 8.6 3.7 15.3 3.7 6.7 10.4 10.5 6.7 3.7 15.3 3.7 13.8 0 23.2-11l13.7 12.7q-6.6 8-16.3 12.2-9.8 4.2-21.8 4.2z"/>
			<path id="&lt;Path&gt;" class="s0" d="m736.9 502.3v17.1h-71.3v-92.1h69.6v17.1h-48.4v20h42.7v16.6h-42.7v21.3z"/>
			<path id="&lt;Compound Path&gt;" fill-rule="evenodd" class="s0" d="m837.4 499.6h-42.8l-8.1 19.8h-21.9l41.1-92.1h21l41.2 92.1h-22.4zm-6.7-16.2l-14.6-35.2-14.6 35.2z"/>
			<path id="&lt;Path&gt;" class="s0" d="m984.8 427.3v92.1h-17.5l-45.9-55.9v55.9h-21v-92.1h17.6l45.8 55.9v-55.9z"/>
			<path id="&lt;Path&gt;" class="s0" d="m1029.6 427.3h21.3v92.1h-21.3z"/>
			<path id="&lt;Path&gt;" class="s0" d="m1153.6 519.4l-22.2-32-21.9 32h-24.4l34-46.9-32.4-45.2h24.3l21.1 29.9 20.8-29.9h23.1l-32.1 44.5 34.3 47.6z"/>
			<path id="&lt;Path&gt;" class="s0" d="m493.8 569.1v52.9h-4.6l-34-42.9v42.9h-5.6v-52.9h4.5l34.2 42.9v-42.9z"/>
			<path id="&lt;Compound Path&gt;" fill-rule="evenodd" class="s0" d="m585.9 607.9h-29.5l-6.3 14.1h-5.9l24.3-52.9h5.5l24.2 52.9h-5.9zm-2-4.5l-12.7-28.4-12.8 28.4zm-7.2-47.9h7.2l-12.3 9.3h-5.3z"/>
			<g id="&lt;Group&gt;">
				<path id="&lt;Path&gt;" class="s0" d="m670 622.5q-10.3 0-16.1-5.9-5.7-5.9-5.7-17.2v-30.3h5.6v30.1q0 9.3 4.2 13.8 4.1 4.5 12 4.5 7.9 0 12.1-4.5c2.7-3 4.1-7.6 4.1-13.8v-30.1h5.5v30.3q0 11.3-5.7 17.2-5.7 5.9-16 5.9z"/>
				<path id="&lt;Path&gt;" class="s0" d="m760.5 573.9h-18.6v-4.8h42.8v4.8h-18.6v48.1h-5.6z"/>
				<path id="&lt;Path&gt;" class="s0" d="m835.3 569.1h5.6v52.9h-5.6z"/>
				<path id="&lt;Path&gt;" class="s0" d="m922.8 622.5q-7.8 0-14.1-3.5-6.3-3.4-10-9.6-3.5-6.2-3.5-13.8 0-7.7 3.5-13.8 3.7-6.2 10-9.7 6.3-3.5 14.2-3.5 5.9 0 10.9 2 5 2 8.5 5.8l-3.6 3.5q-6.2-6.3-15.7-6.3-6.2 0-11.3 2.9-5.2 2.9-8.1 7.9-2.9 5-2.9 11.2 0 6.2 2.9 11.1 2.9 5.1 8.1 8 5.1 2.8 11.3 2.8 9.6 0 15.7-6.3l3.6 3.5q-3.5 3.8-8.5 5.8-5 2-11 2z"/>
				<path id="&lt;Compound Path&gt;" fill-rule="evenodd" class="s0" d="m1019 622.5q-7.8 0-14.2-3.5-6.4-3.5-10-9.6-3.6-6.2-3.6-13.8 0-7.7 3.6-13.8 3.6-6.2 10-9.7 6.4-3.5 14.2-3.5 7.9 0 14.2 3.5 6.4 3.5 10 9.7 3.7 6.1 3.6 13.8 0.1 7.6-3.6 13.8-3.6 6.2-10 9.6-6.3 3.5-14.2 3.5zm0-5q6.3 0 11.4-2.8 5.1-2.9 7.9-7.9 2.9-5 2.9-11.2 0-6.2-2.9-11.2-2.8-5.1-7.9-7.9-5.1-2.9-11.4-2.9-6.2 0-11.3 2.9-5.1 2.8-8 7.9-3 5-3 11.2 0 6.2 3 11.2 2.9 5 8 7.9 5.1 2.8 11.3 2.8z"/>
				<path id="&lt;Path&gt;" class="s0" d="m1115.7 622.5q-6 0-11.4-1.9-5.4-1.9-8.3-5l2.2-4.3q2.9 2.9 7.6 4.7 4.8 1.8 9.9 1.8 7 0 10.6-2.6 3.6-2.7 3.6-6.8 0-3.2-1.9-5.1c-1.3-1.3-2.9-2.2-4.8-2.9q-2.8-1-7.7-2.2-6.1-1.5-9.6-3-3.5-1.4-6.1-4.3-2.5-2.8-2.5-7.8 0-4 2.1-7.3 2.1-3.2 6.5-5.2c2.9-1.3 6.6-2 10.9-2q4.5 0 8.9 1.3 4.3 1.3 7.5 3.4l-1.9 4.5q-3.3-2.2-7.1-3.3-3.8-1.1-7.4-1.1-7 0-10.5 2.7-3.5 2.7-3.5 6.9 0 3.2 1.9 5.2 2 1.8 4.8 2.9 3 1 7.9 2.2 5.8 1.4 9.4 2.9 3.6 1.3 6.1 4.2 2.5 2.9 2.5 7.6 0 4-2.1 7.3-2.2 3.3-6.7 5.2-4.4 2-10.9 2z"/>
			</g>
		</g>
	</g>
</svg>